<?xml version="1.0" encoding="utf-8"?>
<svg xmlns="http://www.w3.org/2000/svg" xmlns:xlink="http://www.w3.org/1999/xlink" width="600" height="400" viewBox="0 0 2400 1600">
<defs>
  <clipPath id="clip6900">
    <rect x="0" y="0" width="2400" height="1600"/>
  </clipPath>
</defs>
<path clip-path="url(#clip6900)" d="
M0 1600 L2400 1600 L2400 0 L0 0  Z
  " fill="#ffffff" fill-rule="evenodd" fill-opacity="1"/>
<defs>
  <clipPath id="clip6901">
    <rect x="480" y="0" width="1681" height="1600"/>
  </clipPath>
</defs>
<path clip-path="url(#clip6900)" d="
M203.721 1425.62 L2352.76 1425.62 L2352.76 47.2441 L203.721 47.2441  Z
  " fill="#ffffff" fill-rule="evenodd" fill-opacity="1"/>
<defs>
  <clipPath id="clip6902">
    <rect x="203" y="47" width="2150" height="1379"/>
  </clipPath>
</defs>
<polyline clip-path="url(#clip6902)" style="stroke:#000000; stroke-width:2; stroke-opacity:0.1; fill:none" points="
  264.542,1425.62 264.542,47.2441 
  "/>
<polyline clip-path="url(#clip6902)" style="stroke:#000000; stroke-width:2; stroke-opacity:0.1; fill:none" points="
  940.34,1425.62 940.34,47.2441 
  "/>
<polyline clip-path="url(#clip6902)" style="stroke:#000000; stroke-width:2; stroke-opacity:0.1; fill:none" points="
  1616.14,1425.62 1616.14,47.2441 
  "/>
<polyline clip-path="url(#clip6902)" style="stroke:#000000; stroke-width:2; stroke-opacity:0.1; fill:none" points="
  2291.93,1425.62 2291.93,47.2441 
  "/>
<polyline clip-path="url(#clip6902)" style="stroke:#000000; stroke-width:2; stroke-opacity:0.1; fill:none" points="
  203.721,1232.54 2352.76,1232.54 
  "/>
<polyline clip-path="url(#clip6902)" style="stroke:#000000; stroke-width:2; stroke-opacity:0.1; fill:none" points="
  203.721,917.13 2352.76,917.13 
  "/>
<polyline clip-path="url(#clip6902)" style="stroke:#000000; stroke-width:2; stroke-opacity:0.1; fill:none" points="
  203.721,601.721 2352.76,601.721 
  "/>
<polyline clip-path="url(#clip6902)" style="stroke:#000000; stroke-width:2; stroke-opacity:0.1; fill:none" points="
  203.721,286.313 2352.76,286.313 
  "/>
<polyline clip-path="url(#clip6900)" style="stroke:#000000; stroke-width:4; stroke-opacity:1; fill:none" points="
  203.721,1425.62 2352.76,1425.62 
  "/>
<polyline clip-path="url(#clip6900)" style="stroke:#000000; stroke-width:4; stroke-opacity:1; fill:none" points="
  203.721,1425.62 203.721,47.2441 
  "/>
<polyline clip-path="url(#clip6900)" style="stroke:#000000; stroke-width:4; stroke-opacity:1; fill:none" points="
  264.542,1425.62 264.542,1409.08 
  "/>
<polyline clip-path="url(#clip6900)" style="stroke:#000000; stroke-width:4; stroke-opacity:1; fill:none" points="
  940.34,1425.62 940.34,1409.08 
  "/>
<polyline clip-path="url(#clip6900)" style="stroke:#000000; stroke-width:4; stroke-opacity:1; fill:none" points="
  1616.14,1425.62 1616.14,1409.08 
  "/>
<polyline clip-path="url(#clip6900)" style="stroke:#000000; stroke-width:4; stroke-opacity:1; fill:none" points="
  2291.93,1425.62 2291.93,1409.08 
  "/>
<polyline clip-path="url(#clip6900)" style="stroke:#000000; stroke-width:4; stroke-opacity:1; fill:none" points="
  203.721,1232.54 229.509,1232.54 
  "/>
<polyline clip-path="url(#clip6900)" style="stroke:#000000; stroke-width:4; stroke-opacity:1; fill:none" points="
  203.721,917.13 229.509,917.13 
  "/>
<polyline clip-path="url(#clip6900)" style="stroke:#000000; stroke-width:4; stroke-opacity:1; fill:none" points="
  203.721,601.721 229.509,601.721 
  "/>
<polyline clip-path="url(#clip6900)" style="stroke:#000000; stroke-width:4; stroke-opacity:1; fill:none" points="
  203.721,286.313 229.509,286.313 
  "/>
<g clip-path="url(#clip6900)">
<text style="fill:#000000; fill-opacity:1; font-family:Arial,Helvetica Neue,Helvetica,sans-serif; font-size:48px; text-anchor:start;" transform="rotate(0, 204.616, 1500.63)" x="204.616" y="1500.63">10</text>
</g>
<g clip-path="url(#clip6900)">
<text style="fill:#000000; fill-opacity:1; font-family:Arial,Helvetica Neue,Helvetica,sans-serif; font-size:38px; text-anchor:start;" transform="rotate(0, 258.141, 1473.22)" x="258.141" y="1473.22">-</text>
</g>
<g clip-path="url(#clip6900)">
<text style="fill:#000000; fill-opacity:1; font-family:Arial,Helvetica Neue,Helvetica,sans-serif; font-size:38px; text-anchor:start;" transform="rotate(0, 280.98, 1473.22)" x="280.98" y="1473.22">15</text>
</g>
<g clip-path="url(#clip6900)">
<text style="fill:#000000; fill-opacity:1; font-family:Arial,Helvetica Neue,Helvetica,sans-serif; font-size:48px; text-anchor:start;" transform="rotate(0, 880.413, 1500.63)" x="880.413" y="1500.63">10</text>
</g>
<g clip-path="url(#clip6900)">
<text style="fill:#000000; fill-opacity:1; font-family:Arial,Helvetica Neue,Helvetica,sans-serif; font-size:38px; text-anchor:start;" transform="rotate(0, 933.938, 1473.22)" x="933.938" y="1473.22">-</text>
</g>
<g clip-path="url(#clip6900)">
<text style="fill:#000000; fill-opacity:1; font-family:Arial,Helvetica Neue,Helvetica,sans-serif; font-size:38px; text-anchor:start;" transform="rotate(0, 956.777, 1473.22)" x="956.777" y="1473.22">10</text>
</g>
<g clip-path="url(#clip6900)">
<text style="fill:#000000; fill-opacity:1; font-family:Arial,Helvetica Neue,Helvetica,sans-serif; font-size:48px; text-anchor:start;" transform="rotate(0, 1567.08, 1500.63)" x="1567.08" y="1500.63">10</text>
</g>
<g clip-path="url(#clip6900)">
<text style="fill:#000000; fill-opacity:1; font-family:Arial,Helvetica Neue,Helvetica,sans-serif; font-size:38px; text-anchor:start;" transform="rotate(0, 1620.61, 1473.22)" x="1620.61" y="1473.22">-</text>
</g>
<g clip-path="url(#clip6900)">
<text style="fill:#000000; fill-opacity:1; font-family:Arial,Helvetica Neue,Helvetica,sans-serif; font-size:38px; text-anchor:start;" transform="rotate(0, 1643.45, 1473.22)" x="1643.45" y="1473.22">5</text>
</g>
<g clip-path="url(#clip6900)">
<text style="fill:#000000; fill-opacity:1; font-family:Arial,Helvetica Neue,Helvetica,sans-serif; font-size:48px; text-anchor:start;" transform="rotate(0, 2254.3, 1500.63)" x="2254.3" y="1500.63">10</text>
</g>
<g clip-path="url(#clip6900)">
<text style="fill:#000000; fill-opacity:1; font-family:Arial,Helvetica Neue,Helvetica,sans-serif; font-size:38px; text-anchor:start;" transform="rotate(0, 2307.82, 1473.22)" x="2307.82" y="1473.22">0</text>
</g>
<g clip-path="url(#clip6900)">
<text style="fill:#000000; fill-opacity:1; font-family:Arial,Helvetica Neue,Helvetica,sans-serif; font-size:48px; text-anchor:end;" transform="rotate(0, 179.721, 1250.04)" x="179.721" y="1250.04">-6</text>
</g>
<g clip-path="url(#clip6900)">
<text style="fill:#000000; fill-opacity:1; font-family:Arial,Helvetica Neue,Helvetica,sans-serif; font-size:48px; text-anchor:end;" transform="rotate(0, 179.721, 934.63)" x="179.721" y="934.63">-4</text>
</g>
<g clip-path="url(#clip6900)">
<text style="fill:#000000; fill-opacity:1; font-family:Arial,Helvetica Neue,Helvetica,sans-serif; font-size:48px; text-anchor:end;" transform="rotate(0, 179.721, 619.221)" x="179.721" y="619.221">-2</text>
</g>
<g clip-path="url(#clip6900)">
<text style="fill:#000000; fill-opacity:1; font-family:Arial,Helvetica Neue,Helvetica,sans-serif; font-size:48px; text-anchor:end;" transform="rotate(0, 179.721, 303.813)" x="179.721" y="303.813">0</text>
</g>
<g clip-path="url(#clip6900)">
<text style="fill:#000000; fill-opacity:1; font-family:Arial,Helvetica Neue,Helvetica,sans-serif; font-size:66px; text-anchor:middle;" transform="rotate(0, 1278.24, 1559.48)" x="1278.24" y="1559.48">step-size</text>
</g>
<g clip-path="url(#clip6900)">
<text style="fill:#000000; fill-opacity:1; font-family:Arial,Helvetica Neue,Helvetica,sans-serif; font-size:66px; text-anchor:middle;" transform="rotate(-90, 89.2861, 736.431)" x="89.2861" y="736.431">error&apos;s order [10^]</text>
</g>
<polyline clip-path="url(#clip6902)" style="stroke:#000000; stroke-width:4; stroke-opacity:0; fill:none" points="
  264.542,192.301 278.058,86.2547 291.574,167.133 305.09,122.711 318.606,129.563 332.122,126.032 345.638,151.323 359.154,184.958 372.67,313.219 386.186,241.324 
  399.702,279.564 413.218,333.972 426.734,364.756 440.25,252.418 453.766,294.488 467.282,290.09 480.798,313.169 494.313,344.44 507.829,800.7 521.345,390.609 
  534.861,364.884 548.377,404.282 561.893,390.058 575.409,420.848 588.925,464.39 602.441,693 615.957,509.769 629.473,524.206 642.989,499.475 656.505,549.909 
  670.021,650.702 683.537,582.377 697.053,580.481 710.569,567.687 724.085,650.113 737.6,632.823 751.116,634.884 764.632,683.872 778.148,800.7 791.664,726.026 
  805.18,791.296 818.696,770.814 832.212,753.972 845.728,737.903 859.244,820.911 872.76,953.542 886.276,850.815 899.792,779.566 913.308,830.639 926.824,870.603 
  940.34,952.694 953.856,880.978 967.372,1100.15 980.887,885.614 994.403,1065.43 1007.92,935.879 1021.44,965.773 1034.95,946.919 1048.47,1001.1 1061.98,1285.81 
  1075.5,1165.72 1089.02,1341.32 1102.53,1183.17 1116.05,1083.11 1129.56,1067.33 1143.08,1305.64 1156.59,1131.21 1170.11,1089.94 1183.63,1178.98 1197.14,1154.64 
  1210.66,1218.26 1224.17,1341.32 1237.69,1222.41 1251.21,1171.1 1264.72,1293.74 1278.24,1386.61 1291.75,1213.48 1305.27,1237.33 1318.79,1208.63 1332.3,1204.38 
  1345.82,1197.91 1359.33,1200.27 1372.85,1169.66 1386.37,1160.1 1399.88,1141.04 1413.4,1126.7 1426.91,1110.26 1440.43,1093.93 1453.95,1078.81 1467.46,1063.11 
  1480.98,1046.99 1494.49,1031.25 1508.01,1015.5 1521.53,999.717 1535.04,983.999 1548.56,968.211 1562.07,952.449 1575.59,936.665 1589.11,920.897 1602.62,905.129 
  1616.14,889.361 1629.65,873.588 1643.17,857.819 1656.68,842.048 1670.2,826.278 1683.72,810.507 1697.23,794.737 1710.75,778.966 1724.26,763.196 1737.78,747.425 
  1751.3,731.655 1764.81,715.884 1778.33,700.114 1791.84,684.343 1805.36,668.573 1818.88,652.802 1832.39,637.031 1845.91,621.26 1859.42,605.489 1872.94,589.718 
  1886.46,573.947 1899.97,558.175 1913.49,542.403 1927,526.631 1940.52,510.858 1954.04,495.085 1967.55,479.31 1981.07,463.535 1994.58,447.759 2008.1,431.981 
  2021.62,416.201 2035.13,400.419 2048.65,384.634 2062.16,368.845 2075.68,353.051 2089.19,337.251 2102.71,321.443 2116.23,305.626 2129.74,289.796 2143.26,273.952 
  2156.77,258.088 2170.29,242.2 2183.81,226.282 2197.32,210.327 2210.84,194.324 2224.35,178.262 2237.87,162.126 2251.39,145.899 2264.9,129.558 2278.42,113.075 
  2291.93,96.4185 
  "/>
<circle clip-path="url(#clip6902)" cx="264.542" cy="192.301" r="7" fill="#009af9" fill-rule="evenodd" fill-opacity="1" stroke="#000000" stroke-opacity="1" stroke-width="3.2"/>
<circle clip-path="url(#clip6902)" cx="278.058" cy="86.2547" r="7" fill="#009af9" fill-rule="evenodd" fill-opacity="1" stroke="#000000" stroke-opacity="1" stroke-width="3.2"/>
<circle clip-path="url(#clip6902)" cx="291.574" cy="167.133" r="7" fill="#009af9" fill-rule="evenodd" fill-opacity="1" stroke="#000000" stroke-opacity="1" stroke-width="3.2"/>
<circle clip-path="url(#clip6902)" cx="305.09" cy="122.711" r="7" fill="#009af9" fill-rule="evenodd" fill-opacity="1" stroke="#000000" stroke-opacity="1" stroke-width="3.2"/>
<circle clip-path="url(#clip6902)" cx="318.606" cy="129.563" r="7" fill="#009af9" fill-rule="evenodd" fill-opacity="1" stroke="#000000" stroke-opacity="1" stroke-width="3.2"/>
<circle clip-path="url(#clip6902)" cx="332.122" cy="126.032" r="7" fill="#009af9" fill-rule="evenodd" fill-opacity="1" stroke="#000000" stroke-opacity="1" stroke-width="3.2"/>
<circle clip-path="url(#clip6902)" cx="345.638" cy="151.323" r="7" fill="#009af9" fill-rule="evenodd" fill-opacity="1" stroke="#000000" stroke-opacity="1" stroke-width="3.2"/>
<circle clip-path="url(#clip6902)" cx="359.154" cy="184.958" r="7" fill="#009af9" fill-rule="evenodd" fill-opacity="1" stroke="#000000" stroke-opacity="1" stroke-width="3.2"/>
<circle clip-path="url(#clip6902)" cx="372.67" cy="313.219" r="7" fill="#009af9" fill-rule="evenodd" fill-opacity="1" stroke="#000000" stroke-opacity="1" stroke-width="3.2"/>
<circle clip-path="url(#clip6902)" cx="386.186" cy="241.324" r="7" fill="#009af9" fill-rule="evenodd" fill-opacity="1" stroke="#000000" stroke-opacity="1" stroke-width="3.2"/>
<circle clip-path="url(#clip6902)" cx="399.702" cy="279.564" r="7" fill="#009af9" fill-rule="evenodd" fill-opacity="1" stroke="#000000" stroke-opacity="1" stroke-width="3.2"/>
<circle clip-path="url(#clip6902)" cx="413.218" cy="333.972" r="7" fill="#009af9" fill-rule="evenodd" fill-opacity="1" stroke="#000000" stroke-opacity="1" stroke-width="3.2"/>
<circle clip-path="url(#clip6902)" cx="426.734" cy="364.756" r="7" fill="#009af9" fill-rule="evenodd" fill-opacity="1" stroke="#000000" stroke-opacity="1" stroke-width="3.2"/>
<circle clip-path="url(#clip6902)" cx="440.25" cy="252.418" r="7" fill="#009af9" fill-rule="evenodd" fill-opacity="1" stroke="#000000" stroke-opacity="1" stroke-width="3.2"/>
<circle clip-path="url(#clip6902)" cx="453.766" cy="294.488" r="7" fill="#009af9" fill-rule="evenodd" fill-opacity="1" stroke="#000000" stroke-opacity="1" stroke-width="3.2"/>
<circle clip-path="url(#clip6902)" cx="467.282" cy="290.09" r="7" fill="#009af9" fill-rule="evenodd" fill-opacity="1" stroke="#000000" stroke-opacity="1" stroke-width="3.2"/>
<circle clip-path="url(#clip6902)" cx="480.798" cy="313.169" r="7" fill="#009af9" fill-rule="evenodd" fill-opacity="1" stroke="#000000" stroke-opacity="1" stroke-width="3.2"/>
<circle clip-path="url(#clip6902)" cx="494.313" cy="344.44" r="7" fill="#009af9" fill-rule="evenodd" fill-opacity="1" stroke="#000000" stroke-opacity="1" stroke-width="3.2"/>
<circle clip-path="url(#clip6902)" cx="507.829" cy="800.7" r="7" fill="#009af9" fill-rule="evenodd" fill-opacity="1" stroke="#000000" stroke-opacity="1" stroke-width="3.2"/>
<circle clip-path="url(#clip6902)" cx="521.345" cy="390.609" r="7" fill="#009af9" fill-rule="evenodd" fill-opacity="1" stroke="#000000" stroke-opacity="1" stroke-width="3.2"/>
<circle clip-path="url(#clip6902)" cx="534.861" cy="364.884" r="7" fill="#009af9" fill-rule="evenodd" fill-opacity="1" stroke="#000000" stroke-opacity="1" stroke-width="3.2"/>
<circle clip-path="url(#clip6902)" cx="548.377" cy="404.282" r="7" fill="#009af9" fill-rule="evenodd" fill-opacity="1" stroke="#000000" stroke-opacity="1" stroke-width="3.2"/>
<circle clip-path="url(#clip6902)" cx="561.893" cy="390.058" r="7" fill="#009af9" fill-rule="evenodd" fill-opacity="1" stroke="#000000" stroke-opacity="1" stroke-width="3.2"/>
<circle clip-path="url(#clip6902)" cx="575.409" cy="420.848" r="7" fill="#009af9" fill-rule="evenodd" fill-opacity="1" stroke="#000000" stroke-opacity="1" stroke-width="3.2"/>
<circle clip-path="url(#clip6902)" cx="588.925" cy="464.39" r="7" fill="#009af9" fill-rule="evenodd" fill-opacity="1" stroke="#000000" stroke-opacity="1" stroke-width="3.2"/>
<circle clip-path="url(#clip6902)" cx="602.441" cy="693" r="7" fill="#009af9" fill-rule="evenodd" fill-opacity="1" stroke="#000000" stroke-opacity="1" stroke-width="3.2"/>
<circle clip-path="url(#clip6902)" cx="615.957" cy="509.769" r="7" fill="#009af9" fill-rule="evenodd" fill-opacity="1" stroke="#000000" stroke-opacity="1" stroke-width="3.2"/>
<circle clip-path="url(#clip6902)" cx="629.473" cy="524.206" r="7" fill="#009af9" fill-rule="evenodd" fill-opacity="1" stroke="#000000" stroke-opacity="1" stroke-width="3.2"/>
<circle clip-path="url(#clip6902)" cx="642.989" cy="499.475" r="7" fill="#009af9" fill-rule="evenodd" fill-opacity="1" stroke="#000000" stroke-opacity="1" stroke-width="3.2"/>
<circle clip-path="url(#clip6902)" cx="656.505" cy="549.909" r="7" fill="#009af9" fill-rule="evenodd" fill-opacity="1" stroke="#000000" stroke-opacity="1" stroke-width="3.2"/>
<circle clip-path="url(#clip6902)" cx="670.021" cy="650.702" r="7" fill="#009af9" fill-rule="evenodd" fill-opacity="1" stroke="#000000" stroke-opacity="1" stroke-width="3.2"/>
<circle clip-path="url(#clip6902)" cx="683.537" cy="582.377" r="7" fill="#009af9" fill-rule="evenodd" fill-opacity="1" stroke="#000000" stroke-opacity="1" stroke-width="3.2"/>
<circle clip-path="url(#clip6902)" cx="697.053" cy="580.481" r="7" fill="#009af9" fill-rule="evenodd" fill-opacity="1" stroke="#000000" stroke-opacity="1" stroke-width="3.2"/>
<circle clip-path="url(#clip6902)" cx="710.569" cy="567.687" r="7" fill="#009af9" fill-rule="evenodd" fill-opacity="1" stroke="#000000" stroke-opacity="1" stroke-width="3.2"/>
<circle clip-path="url(#clip6902)" cx="724.085" cy="650.113" r="7" fill="#009af9" fill-rule="evenodd" fill-opacity="1" stroke="#000000" stroke-opacity="1" stroke-width="3.2"/>
<circle clip-path="url(#clip6902)" cx="737.6" cy="632.823" r="7" fill="#009af9" fill-rule="evenodd" fill-opacity="1" stroke="#000000" stroke-opacity="1" stroke-width="3.2"/>
<circle clip-path="url(#clip6902)" cx="751.116" cy="634.884" r="7" fill="#009af9" fill-rule="evenodd" fill-opacity="1" stroke="#000000" stroke-opacity="1" stroke-width="3.2"/>
<circle clip-path="url(#clip6902)" cx="764.632" cy="683.872" r="7" fill="#009af9" fill-rule="evenodd" fill-opacity="1" stroke="#000000" stroke-opacity="1" stroke-width="3.2"/>
<circle clip-path="url(#clip6902)" cx="778.148" cy="800.7" r="7" fill="#009af9" fill-rule="evenodd" fill-opacity="1" stroke="#000000" stroke-opacity="1" stroke-width="3.2"/>
<circle clip-path="url(#clip6902)" cx="791.664" cy="726.026" r="7" fill="#009af9" fill-rule="evenodd" fill-opacity="1" stroke="#000000" stroke-opacity="1" stroke-width="3.2"/>
<circle clip-path="url(#clip6902)" cx="805.18" cy="791.296" r="7" fill="#009af9" fill-rule="evenodd" fill-opacity="1" stroke="#000000" stroke-opacity="1" stroke-width="3.2"/>
<circle clip-path="url(#clip6902)" cx="818.696" cy="770.814" r="7" fill="#009af9" fill-rule="evenodd" fill-opacity="1" stroke="#000000" stroke-opacity="1" stroke-width="3.2"/>
<circle clip-path="url(#clip6902)" cx="832.212" cy="753.972" r="7" fill="#009af9" fill-rule="evenodd" fill-opacity="1" stroke="#000000" stroke-opacity="1" stroke-width="3.2"/>
<circle clip-path="url(#clip6902)" cx="845.728" cy="737.903" r="7" fill="#009af9" fill-rule="evenodd" fill-opacity="1" stroke="#000000" stroke-opacity="1" stroke-width="3.2"/>
<circle clip-path="url(#clip6902)" cx="859.244" cy="820.911" r="7" fill="#009af9" fill-rule="evenodd" fill-opacity="1" stroke="#000000" stroke-opacity="1" stroke-width="3.2"/>
<circle clip-path="url(#clip6902)" cx="872.76" cy="953.542" r="7" fill="#009af9" fill-rule="evenodd" fill-opacity="1" stroke="#000000" stroke-opacity="1" stroke-width="3.2"/>
<circle clip-path="url(#clip6902)" cx="886.276" cy="850.815" r="7" fill="#009af9" fill-rule="evenodd" fill-opacity="1" stroke="#000000" stroke-opacity="1" stroke-width="3.2"/>
<circle clip-path="url(#clip6902)" cx="899.792" cy="779.566" r="7" fill="#009af9" fill-rule="evenodd" fill-opacity="1" stroke="#000000" stroke-opacity="1" stroke-width="3.2"/>
<circle clip-path="url(#clip6902)" cx="913.308" cy="830.639" r="7" fill="#009af9" fill-rule="evenodd" fill-opacity="1" stroke="#000000" stroke-opacity="1" stroke-width="3.2"/>
<circle clip-path="url(#clip6902)" cx="926.824" cy="870.603" r="7" fill="#009af9" fill-rule="evenodd" fill-opacity="1" stroke="#000000" stroke-opacity="1" stroke-width="3.2"/>
<circle clip-path="url(#clip6902)" cx="940.34" cy="952.694" r="7" fill="#009af9" fill-rule="evenodd" fill-opacity="1" stroke="#000000" stroke-opacity="1" stroke-width="3.2"/>
<circle clip-path="url(#clip6902)" cx="953.856" cy="880.978" r="7" fill="#009af9" fill-rule="evenodd" fill-opacity="1" stroke="#000000" stroke-opacity="1" stroke-width="3.2"/>
<circle clip-path="url(#clip6902)" cx="967.372" cy="1100.15" r="7" fill="#009af9" fill-rule="evenodd" fill-opacity="1" stroke="#000000" stroke-opacity="1" stroke-width="3.2"/>
<circle clip-path="url(#clip6902)" cx="980.887" cy="885.614" r="7" fill="#009af9" fill-rule="evenodd" fill-opacity="1" stroke="#000000" stroke-opacity="1" stroke-width="3.2"/>
<circle clip-path="url(#clip6902)" cx="994.403" cy="1065.43" r="7" fill="#009af9" fill-rule="evenodd" fill-opacity="1" stroke="#000000" stroke-opacity="1" stroke-width="3.2"/>
<circle clip-path="url(#clip6902)" cx="1007.92" cy="935.879" r="7" fill="#009af9" fill-rule="evenodd" fill-opacity="1" stroke="#000000" stroke-opacity="1" stroke-width="3.2"/>
<circle clip-path="url(#clip6902)" cx="1021.44" cy="965.773" r="7" fill="#009af9" fill-rule="evenodd" fill-opacity="1" stroke="#000000" stroke-opacity="1" stroke-width="3.2"/>
<circle clip-path="url(#clip6902)" cx="1034.95" cy="946.919" r="7" fill="#009af9" fill-rule="evenodd" fill-opacity="1" stroke="#000000" stroke-opacity="1" stroke-width="3.2"/>
<circle clip-path="url(#clip6902)" cx="1048.47" cy="1001.1" r="7" fill="#009af9" fill-rule="evenodd" fill-opacity="1" stroke="#000000" stroke-opacity="1" stroke-width="3.2"/>
<circle clip-path="url(#clip6902)" cx="1061.98" cy="1285.81" r="7" fill="#009af9" fill-rule="evenodd" fill-opacity="1" stroke="#000000" stroke-opacity="1" stroke-width="3.2"/>
<circle clip-path="url(#clip6902)" cx="1075.5" cy="1165.72" r="7" fill="#009af9" fill-rule="evenodd" fill-opacity="1" stroke="#000000" stroke-opacity="1" stroke-width="3.2"/>
<circle clip-path="url(#clip6902)" cx="1089.02" cy="1341.32" r="7" fill="#009af9" fill-rule="evenodd" fill-opacity="1" stroke="#000000" stroke-opacity="1" stroke-width="3.2"/>
<circle clip-path="url(#clip6902)" cx="1102.53" cy="1183.17" r="7" fill="#009af9" fill-rule="evenodd" fill-opacity="1" stroke="#000000" stroke-opacity="1" stroke-width="3.2"/>
<circle clip-path="url(#clip6902)" cx="1116.05" cy="1083.11" r="7" fill="#009af9" fill-rule="evenodd" fill-opacity="1" stroke="#000000" stroke-opacity="1" stroke-width="3.2"/>
<circle clip-path="url(#clip6902)" cx="1129.56" cy="1067.33" r="7" fill="#009af9" fill-rule="evenodd" fill-opacity="1" stroke="#000000" stroke-opacity="1" stroke-width="3.2"/>
<circle clip-path="url(#clip6902)" cx="1143.08" cy="1305.64" r="7" fill="#009af9" fill-rule="evenodd" fill-opacity="1" stroke="#000000" stroke-opacity="1" stroke-width="3.2"/>
<circle clip-path="url(#clip6902)" cx="1156.59" cy="1131.21" r="7" fill="#009af9" fill-rule="evenodd" fill-opacity="1" stroke="#000000" stroke-opacity="1" stroke-width="3.2"/>
<circle clip-path="url(#clip6902)" cx="1170.11" cy="1089.94" r="7" fill="#009af9" fill-rule="evenodd" fill-opacity="1" stroke="#000000" stroke-opacity="1" stroke-width="3.2"/>
<circle clip-path="url(#clip6902)" cx="1183.63" cy="1178.98" r="7" fill="#009af9" fill-rule="evenodd" fill-opacity="1" stroke="#000000" stroke-opacity="1" stroke-width="3.2"/>
<circle clip-path="url(#clip6902)" cx="1197.14" cy="1154.64" r="7" fill="#009af9" fill-rule="evenodd" fill-opacity="1" stroke="#000000" stroke-opacity="1" stroke-width="3.2"/>
<circle clip-path="url(#clip6902)" cx="1210.66" cy="1218.26" r="7" fill="#009af9" fill-rule="evenodd" fill-opacity="1" stroke="#000000" stroke-opacity="1" stroke-width="3.2"/>
<circle clip-path="url(#clip6902)" cx="1224.17" cy="1341.32" r="7" fill="#009af9" fill-rule="evenodd" fill-opacity="1" stroke="#000000" stroke-opacity="1" stroke-width="3.2"/>
<circle clip-path="url(#clip6902)" cx="1237.69" cy="1222.41" r="7" fill="#009af9" fill-rule="evenodd" fill-opacity="1" stroke="#000000" stroke-opacity="1" stroke-width="3.2"/>
<circle clip-path="url(#clip6902)" cx="1251.21" cy="1171.1" r="7" fill="#009af9" fill-rule="evenodd" fill-opacity="1" stroke="#000000" stroke-opacity="1" stroke-width="3.2"/>
<circle clip-path="url(#clip6902)" cx="1264.72" cy="1293.74" r="7" fill="#009af9" fill-rule="evenodd" fill-opacity="1" stroke="#000000" stroke-opacity="1" stroke-width="3.2"/>
<circle clip-path="url(#clip6902)" cx="1278.24" cy="1386.61" r="7" fill="#009af9" fill-rule="evenodd" fill-opacity="1" stroke="#000000" stroke-opacity="1" stroke-width="3.2"/>
<circle clip-path="url(#clip6902)" cx="1291.75" cy="1213.48" r="7" fill="#009af9" fill-rule="evenodd" fill-opacity="1" stroke="#000000" stroke-opacity="1" stroke-width="3.2"/>
<circle clip-path="url(#clip6902)" cx="1305.27" cy="1237.33" r="7" fill="#009af9" fill-rule="evenodd" fill-opacity="1" stroke="#000000" stroke-opacity="1" stroke-width="3.2"/>
<circle clip-path="url(#clip6902)" cx="1318.79" cy="1208.63" r="7" fill="#009af9" fill-rule="evenodd" fill-opacity="1" stroke="#000000" stroke-opacity="1" stroke-width="3.2"/>
<circle clip-path="url(#clip6902)" cx="1332.3" cy="1204.38" r="7" fill="#009af9" fill-rule="evenodd" fill-opacity="1" stroke="#000000" stroke-opacity="1" stroke-width="3.2"/>
<circle clip-path="url(#clip6902)" cx="1345.82" cy="1197.91" r="7" fill="#009af9" fill-rule="evenodd" fill-opacity="1" stroke="#000000" stroke-opacity="1" stroke-width="3.2"/>
<circle clip-path="url(#clip6902)" cx="1359.33" cy="1200.27" r="7" fill="#009af9" fill-rule="evenodd" fill-opacity="1" stroke="#000000" stroke-opacity="1" stroke-width="3.2"/>
<circle clip-path="url(#clip6902)" cx="1372.85" cy="1169.66" r="7" fill="#009af9" fill-rule="evenodd" fill-opacity="1" stroke="#000000" stroke-opacity="1" stroke-width="3.2"/>
<circle clip-path="url(#clip6902)" cx="1386.37" cy="1160.1" r="7" fill="#009af9" fill-rule="evenodd" fill-opacity="1" stroke="#000000" stroke-opacity="1" stroke-width="3.2"/>
<circle clip-path="url(#clip6902)" cx="1399.88" cy="1141.04" r="7" fill="#009af9" fill-rule="evenodd" fill-opacity="1" stroke="#000000" stroke-opacity="1" stroke-width="3.2"/>
<circle clip-path="url(#clip6902)" cx="1413.4" cy="1126.7" r="7" fill="#009af9" fill-rule="evenodd" fill-opacity="1" stroke="#000000" stroke-opacity="1" stroke-width="3.2"/>
<circle clip-path="url(#clip6902)" cx="1426.91" cy="1110.26" r="7" fill="#009af9" fill-rule="evenodd" fill-opacity="1" stroke="#000000" stroke-opacity="1" stroke-width="3.2"/>
<circle clip-path="url(#clip6902)" cx="1440.43" cy="1093.93" r="7" fill="#009af9" fill-rule="evenodd" fill-opacity="1" stroke="#000000" stroke-opacity="1" stroke-width="3.2"/>
<circle clip-path="url(#clip6902)" cx="1453.95" cy="1078.81" r="7" fill="#009af9" fill-rule="evenodd" fill-opacity="1" stroke="#000000" stroke-opacity="1" stroke-width="3.2"/>
<circle clip-path="url(#clip6902)" cx="1467.46" cy="1063.11" r="7" fill="#009af9" fill-rule="evenodd" fill-opacity="1" stroke="#000000" stroke-opacity="1" stroke-width="3.2"/>
<circle clip-path="url(#clip6902)" cx="1480.98" cy="1046.99" r="7" fill="#009af9" fill-rule="evenodd" fill-opacity="1" stroke="#000000" stroke-opacity="1" stroke-width="3.2"/>
<circle clip-path="url(#clip6902)" cx="1494.49" cy="1031.25" r="7" fill="#009af9" fill-rule="evenodd" fill-opacity="1" stroke="#000000" stroke-opacity="1" stroke-width="3.2"/>
<circle clip-path="url(#clip6902)" cx="1508.01" cy="1015.5" r="7" fill="#009af9" fill-rule="evenodd" fill-opacity="1" stroke="#000000" stroke-opacity="1" stroke-width="3.2"/>
<circle clip-path="url(#clip6902)" cx="1521.53" cy="999.717" r="7" fill="#009af9" fill-rule="evenodd" fill-opacity="1" stroke="#000000" stroke-opacity="1" stroke-width="3.2"/>
<circle clip-path="url(#clip6902)" cx="1535.04" cy="983.999" r="7" fill="#009af9" fill-rule="evenodd" fill-opacity="1" stroke="#000000" stroke-opacity="1" stroke-width="3.2"/>
<circle clip-path="url(#clip6902)" cx="1548.56" cy="968.211" r="7" fill="#009af9" fill-rule="evenodd" fill-opacity="1" stroke="#000000" stroke-opacity="1" stroke-width="3.2"/>
<circle clip-path="url(#clip6902)" cx="1562.07" cy="952.449" r="7" fill="#009af9" fill-rule="evenodd" fill-opacity="1" stroke="#000000" stroke-opacity="1" stroke-width="3.2"/>
<circle clip-path="url(#clip6902)" cx="1575.59" cy="936.665" r="7" fill="#009af9" fill-rule="evenodd" fill-opacity="1" stroke="#000000" stroke-opacity="1" stroke-width="3.2"/>
<circle clip-path="url(#clip6902)" cx="1589.11" cy="920.897" r="7" fill="#009af9" fill-rule="evenodd" fill-opacity="1" stroke="#000000" stroke-opacity="1" stroke-width="3.2"/>
<circle clip-path="url(#clip6902)" cx="1602.62" cy="905.129" r="7" fill="#009af9" fill-rule="evenodd" fill-opacity="1" stroke="#000000" stroke-opacity="1" stroke-width="3.2"/>
<circle clip-path="url(#clip6902)" cx="1616.14" cy="889.361" r="7" fill="#009af9" fill-rule="evenodd" fill-opacity="1" stroke="#000000" stroke-opacity="1" stroke-width="3.2"/>
<circle clip-path="url(#clip6902)" cx="1629.65" cy="873.588" r="7" fill="#009af9" fill-rule="evenodd" fill-opacity="1" stroke="#000000" stroke-opacity="1" stroke-width="3.2"/>
<circle clip-path="url(#clip6902)" cx="1643.17" cy="857.819" r="7" fill="#009af9" fill-rule="evenodd" fill-opacity="1" stroke="#000000" stroke-opacity="1" stroke-width="3.2"/>
<circle clip-path="url(#clip6902)" cx="1656.68" cy="842.048" r="7" fill="#009af9" fill-rule="evenodd" fill-opacity="1" stroke="#000000" stroke-opacity="1" stroke-width="3.2"/>
<circle clip-path="url(#clip6902)" cx="1670.2" cy="826.278" r="7" fill="#009af9" fill-rule="evenodd" fill-opacity="1" stroke="#000000" stroke-opacity="1" stroke-width="3.2"/>
<circle clip-path="url(#clip6902)" cx="1683.72" cy="810.507" r="7" fill="#009af9" fill-rule="evenodd" fill-opacity="1" stroke="#000000" stroke-opacity="1" stroke-width="3.2"/>
<circle clip-path="url(#clip6902)" cx="1697.23" cy="794.737" r="7" fill="#009af9" fill-rule="evenodd" fill-opacity="1" stroke="#000000" stroke-opacity="1" stroke-width="3.2"/>
<circle clip-path="url(#clip6902)" cx="1710.75" cy="778.966" r="7" fill="#009af9" fill-rule="evenodd" fill-opacity="1" stroke="#000000" stroke-opacity="1" stroke-width="3.2"/>
<circle clip-path="url(#clip6902)" cx="1724.26" cy="763.196" r="7" fill="#009af9" fill-rule="evenodd" fill-opacity="1" stroke="#000000" stroke-opacity="1" stroke-width="3.2"/>
<circle clip-path="url(#clip6902)" cx="1737.78" cy="747.425" r="7" fill="#009af9" fill-rule="evenodd" fill-opacity="1" stroke="#000000" stroke-opacity="1" stroke-width="3.2"/>
<circle clip-path="url(#clip6902)" cx="1751.3" cy="731.655" r="7" fill="#009af9" fill-rule="evenodd" fill-opacity="1" stroke="#000000" stroke-opacity="1" stroke-width="3.2"/>
<circle clip-path="url(#clip6902)" cx="1764.81" cy="715.884" r="7" fill="#009af9" fill-rule="evenodd" fill-opacity="1" stroke="#000000" stroke-opacity="1" stroke-width="3.2"/>
<circle clip-path="url(#clip6902)" cx="1778.33" cy="700.114" r="7" fill="#009af9" fill-rule="evenodd" fill-opacity="1" stroke="#000000" stroke-opacity="1" stroke-width="3.2"/>
<circle clip-path="url(#clip6902)" cx="1791.84" cy="684.343" r="7" fill="#009af9" fill-rule="evenodd" fill-opacity="1" stroke="#000000" stroke-opacity="1" stroke-width="3.2"/>
<circle clip-path="url(#clip6902)" cx="1805.36" cy="668.573" r="7" fill="#009af9" fill-rule="evenodd" fill-opacity="1" stroke="#000000" stroke-opacity="1" stroke-width="3.2"/>
<circle clip-path="url(#clip6902)" cx="1818.88" cy="652.802" r="7" fill="#009af9" fill-rule="evenodd" fill-opacity="1" stroke="#000000" stroke-opacity="1" stroke-width="3.2"/>
<circle clip-path="url(#clip6902)" cx="1832.39" cy="637.031" r="7" fill="#009af9" fill-rule="evenodd" fill-opacity="1" stroke="#000000" stroke-opacity="1" stroke-width="3.2"/>
<circle clip-path="url(#clip6902)" cx="1845.91" cy="621.26" r="7" fill="#009af9" fill-rule="evenodd" fill-opacity="1" stroke="#000000" stroke-opacity="1" stroke-width="3.2"/>
<circle clip-path="url(#clip6902)" cx="1859.42" cy="605.489" r="7" fill="#009af9" fill-rule="evenodd" fill-opacity="1" stroke="#000000" stroke-opacity="1" stroke-width="3.2"/>
<circle clip-path="url(#clip6902)" cx="1872.94" cy="589.718" r="7" fill="#009af9" fill-rule="evenodd" fill-opacity="1" stroke="#000000" stroke-opacity="1" stroke-width="3.2"/>
<circle clip-path="url(#clip6902)" cx="1886.46" cy="573.947" r="7" fill="#009af9" fill-rule="evenodd" fill-opacity="1" stroke="#000000" stroke-opacity="1" stroke-width="3.2"/>
<circle clip-path="url(#clip6902)" cx="1899.97" cy="558.175" r="7" fill="#009af9" fill-rule="evenodd" fill-opacity="1" stroke="#000000" stroke-opacity="1" stroke-width="3.2"/>
<circle clip-path="url(#clip6902)" cx="1913.49" cy="542.403" r="7" fill="#009af9" fill-rule="evenodd" fill-opacity="1" stroke="#000000" stroke-opacity="1" stroke-width="3.2"/>
<circle clip-path="url(#clip6902)" cx="1927" cy="526.631" r="7" fill="#009af9" fill-rule="evenodd" fill-opacity="1" stroke="#000000" stroke-opacity="1" stroke-width="3.2"/>
<circle clip-path="url(#clip6902)" cx="1940.52" cy="510.858" r="7" fill="#009af9" fill-rule="evenodd" fill-opacity="1" stroke="#000000" stroke-opacity="1" stroke-width="3.2"/>
<circle clip-path="url(#clip6902)" cx="1954.04" cy="495.085" r="7" fill="#009af9" fill-rule="evenodd" fill-opacity="1" stroke="#000000" stroke-opacity="1" stroke-width="3.2"/>
<circle clip-path="url(#clip6902)" cx="1967.55" cy="479.31" r="7" fill="#009af9" fill-rule="evenodd" fill-opacity="1" stroke="#000000" stroke-opacity="1" stroke-width="3.2"/>
<circle clip-path="url(#clip6902)" cx="1981.07" cy="463.535" r="7" fill="#009af9" fill-rule="evenodd" fill-opacity="1" stroke="#000000" stroke-opacity="1" stroke-width="3.2"/>
<circle clip-path="url(#clip6902)" cx="1994.58" cy="447.759" r="7" fill="#009af9" fill-rule="evenodd" fill-opacity="1" stroke="#000000" stroke-opacity="1" stroke-width="3.2"/>
<circle clip-path="url(#clip6902)" cx="2008.1" cy="431.981" r="7" fill="#009af9" fill-rule="evenodd" fill-opacity="1" stroke="#000000" stroke-opacity="1" stroke-width="3.2"/>
<circle clip-path="url(#clip6902)" cx="2021.62" cy="416.201" r="7" fill="#009af9" fill-rule="evenodd" fill-opacity="1" stroke="#000000" stroke-opacity="1" stroke-width="3.2"/>
<circle clip-path="url(#clip6902)" cx="2035.13" cy="400.419" r="7" fill="#009af9" fill-rule="evenodd" fill-opacity="1" stroke="#000000" stroke-opacity="1" stroke-width="3.2"/>
<circle clip-path="url(#clip6902)" cx="2048.65" cy="384.634" r="7" fill="#009af9" fill-rule="evenodd" fill-opacity="1" stroke="#000000" stroke-opacity="1" stroke-width="3.2"/>
<circle clip-path="url(#clip6902)" cx="2062.16" cy="368.845" r="7" fill="#009af9" fill-rule="evenodd" fill-opacity="1" stroke="#000000" stroke-opacity="1" stroke-width="3.2"/>
<circle clip-path="url(#clip6902)" cx="2075.68" cy="353.051" r="7" fill="#009af9" fill-rule="evenodd" fill-opacity="1" stroke="#000000" stroke-opacity="1" stroke-width="3.2"/>
<circle clip-path="url(#clip6902)" cx="2089.19" cy="337.251" r="7" fill="#009af9" fill-rule="evenodd" fill-opacity="1" stroke="#000000" stroke-opacity="1" stroke-width="3.2"/>
<circle clip-path="url(#clip6902)" cx="2102.71" cy="321.443" r="7" fill="#009af9" fill-rule="evenodd" fill-opacity="1" stroke="#000000" stroke-opacity="1" stroke-width="3.2"/>
<circle clip-path="url(#clip6902)" cx="2116.23" cy="305.626" r="7" fill="#009af9" fill-rule="evenodd" fill-opacity="1" stroke="#000000" stroke-opacity="1" stroke-width="3.2"/>
<circle clip-path="url(#clip6902)" cx="2129.74" cy="289.796" r="7" fill="#009af9" fill-rule="evenodd" fill-opacity="1" stroke="#000000" stroke-opacity="1" stroke-width="3.2"/>
<circle clip-path="url(#clip6902)" cx="2143.26" cy="273.952" r="7" fill="#009af9" fill-rule="evenodd" fill-opacity="1" stroke="#000000" stroke-opacity="1" stroke-width="3.2"/>
<circle clip-path="url(#clip6902)" cx="2156.77" cy="258.088" r="7" fill="#009af9" fill-rule="evenodd" fill-opacity="1" stroke="#000000" stroke-opacity="1" stroke-width="3.2"/>
<circle clip-path="url(#clip6902)" cx="2170.29" cy="242.2" r="7" fill="#009af9" fill-rule="evenodd" fill-opacity="1" stroke="#000000" stroke-opacity="1" stroke-width="3.2"/>
<circle clip-path="url(#clip6902)" cx="2183.81" cy="226.282" r="7" fill="#009af9" fill-rule="evenodd" fill-opacity="1" stroke="#000000" stroke-opacity="1" stroke-width="3.2"/>
<circle clip-path="url(#clip6902)" cx="2197.32" cy="210.327" r="7" fill="#009af9" fill-rule="evenodd" fill-opacity="1" stroke="#000000" stroke-opacity="1" stroke-width="3.2"/>
<circle clip-path="url(#clip6902)" cx="2210.84" cy="194.324" r="7" fill="#009af9" fill-rule="evenodd" fill-opacity="1" stroke="#000000" stroke-opacity="1" stroke-width="3.2"/>
<circle clip-path="url(#clip6902)" cx="2224.35" cy="178.262" r="7" fill="#009af9" fill-rule="evenodd" fill-opacity="1" stroke="#000000" stroke-opacity="1" stroke-width="3.2"/>
<circle clip-path="url(#clip6902)" cx="2237.87" cy="162.126" r="7" fill="#009af9" fill-rule="evenodd" fill-opacity="1" stroke="#000000" stroke-opacity="1" stroke-width="3.2"/>
<circle clip-path="url(#clip6902)" cx="2251.39" cy="145.899" r="7" fill="#009af9" fill-rule="evenodd" fill-opacity="1" stroke="#000000" stroke-opacity="1" stroke-width="3.2"/>
<circle clip-path="url(#clip6902)" cx="2264.9" cy="129.558" r="7" fill="#009af9" fill-rule="evenodd" fill-opacity="1" stroke="#000000" stroke-opacity="1" stroke-width="3.2"/>
<circle clip-path="url(#clip6902)" cx="2278.42" cy="113.075" r="7" fill="#009af9" fill-rule="evenodd" fill-opacity="1" stroke="#000000" stroke-opacity="1" stroke-width="3.2"/>
<circle clip-path="url(#clip6902)" cx="2291.93" cy="96.4185" r="7" fill="#009af9" fill-rule="evenodd" fill-opacity="1" stroke="#000000" stroke-opacity="1" stroke-width="3.2"/>
<path clip-path="url(#clip6900)" d="
M1639.51 251.724 L2280.76 251.724 L2280.76 130.764 L1639.51 130.764  Z
  " fill="#ffffff" fill-rule="evenodd" fill-opacity="1"/>
<polyline clip-path="url(#clip6900)" style="stroke:#000000; stroke-width:4; stroke-opacity:1; fill:none" points="
  1639.51,251.724 2280.76,251.724 2280.76,130.764 1639.51,130.764 1639.51,251.724 
  "/>
<polyline clip-path="url(#clip6900)" style="stroke:#000000; stroke-width:4; stroke-opacity:0; fill:none" points="
  1663.51,191.244 1807.51,191.244 
  "/>
<circle clip-path="url(#clip6900)" cx="1747.51" cy="191.244" r="21" fill="#009af9" fill-rule="evenodd" fill-opacity="1" stroke="#000000" stroke-opacity="1" stroke-width="3.2"/>
<g clip-path="url(#clip6900)">
<text style="fill:#000000; fill-opacity:1; font-family:Arial,Helvetica Neue,Helvetica,sans-serif; font-size:48px; text-anchor:start;" transform="rotate(0, 1831.51, 208.744)" x="1831.51" y="208.744">Forward difference</text>
</g>
</svg>
