<?xml version="1.0" encoding="utf-8"?>
<svg xmlns="http://www.w3.org/2000/svg" xmlns:xlink="http://www.w3.org/1999/xlink" width="600" height="400" viewBox="0 0 2400 1600">
<defs>
  <clipPath id="clip6200">
    <rect x="0" y="0" width="2400" height="1600"/>
  </clipPath>
</defs>
<path clip-path="url(#clip6200)" d="
M0 1600 L2400 1600 L2400 0 L0 0  Z
  " fill="#ffffff" fill-rule="evenodd" fill-opacity="1"/>
<defs>
  <clipPath id="clip6201">
    <rect x="480" y="0" width="1681" height="1600"/>
  </clipPath>
</defs>
<path clip-path="url(#clip6200)" d="
M182.008 1487.47 L2112.76 1487.47 L2112.76 47.2441 L182.008 47.2441  Z
  " fill="#ffffff" fill-rule="evenodd" fill-opacity="1"/>
<defs>
  <clipPath id="clip6202">
    <rect x="182" y="47" width="1932" height="1441"/>
  </clipPath>
</defs>
<polyline clip-path="url(#clip6202)" style="stroke:#000000; stroke-width:2; stroke-opacity:0.1; fill:none" points="
  496.395,1487.47 496.395,47.2441 
  "/>
<polyline clip-path="url(#clip6202)" style="stroke:#000000; stroke-width:2; stroke-opacity:0.1; fill:none" points="
  821.889,1487.47 821.889,47.2441 
  "/>
<polyline clip-path="url(#clip6202)" style="stroke:#000000; stroke-width:2; stroke-opacity:0.1; fill:none" points="
  1147.38,1487.47 1147.38,47.2441 
  "/>
<polyline clip-path="url(#clip6202)" style="stroke:#000000; stroke-width:2; stroke-opacity:0.1; fill:none" points="
  1472.88,1487.47 1472.88,47.2441 
  "/>
<polyline clip-path="url(#clip6202)" style="stroke:#000000; stroke-width:2; stroke-opacity:0.1; fill:none" points="
  1798.37,1487.47 1798.37,47.2441 
  "/>
<polyline clip-path="url(#clip6202)" style="stroke:#000000; stroke-width:2; stroke-opacity:0.1; fill:none" points="
  182.008,1328.56 2112.76,1328.56 
  "/>
<polyline clip-path="url(#clip6202)" style="stroke:#000000; stroke-width:2; stroke-opacity:0.1; fill:none" points="
  182.008,1033.19 2112.76,1033.19 
  "/>
<polyline clip-path="url(#clip6202)" style="stroke:#000000; stroke-width:2; stroke-opacity:0.1; fill:none" points="
  182.008,737.822 2112.76,737.822 
  "/>
<polyline clip-path="url(#clip6202)" style="stroke:#000000; stroke-width:2; stroke-opacity:0.1; fill:none" points="
  182.008,442.451 2112.76,442.451 
  "/>
<polyline clip-path="url(#clip6202)" style="stroke:#000000; stroke-width:2; stroke-opacity:0.1; fill:none" points="
  182.008,147.08 2112.76,147.08 
  "/>
<polyline clip-path="url(#clip6200)" style="stroke:#000000; stroke-width:4; stroke-opacity:1; fill:none" points="
  182.008,1487.47 2112.76,1487.47 
  "/>
<polyline clip-path="url(#clip6200)" style="stroke:#000000; stroke-width:4; stroke-opacity:1; fill:none" points="
  182.008,1487.47 182.008,47.2441 
  "/>
<polyline clip-path="url(#clip6200)" style="stroke:#000000; stroke-width:4; stroke-opacity:1; fill:none" points="
  496.395,1487.47 496.395,1470.19 
  "/>
<polyline clip-path="url(#clip6200)" style="stroke:#000000; stroke-width:4; stroke-opacity:1; fill:none" points="
  821.889,1487.47 821.889,1470.19 
  "/>
<polyline clip-path="url(#clip6200)" style="stroke:#000000; stroke-width:4; stroke-opacity:1; fill:none" points="
  1147.38,1487.47 1147.38,1470.19 
  "/>
<polyline clip-path="url(#clip6200)" style="stroke:#000000; stroke-width:4; stroke-opacity:1; fill:none" points="
  1472.88,1487.47 1472.88,1470.19 
  "/>
<polyline clip-path="url(#clip6200)" style="stroke:#000000; stroke-width:4; stroke-opacity:1; fill:none" points="
  1798.37,1487.47 1798.37,1470.19 
  "/>
<polyline clip-path="url(#clip6200)" style="stroke:#000000; stroke-width:4; stroke-opacity:1; fill:none" points="
  182.008,1328.56 205.177,1328.56 
  "/>
<polyline clip-path="url(#clip6200)" style="stroke:#000000; stroke-width:4; stroke-opacity:1; fill:none" points="
  182.008,1033.19 205.177,1033.19 
  "/>
<polyline clip-path="url(#clip6200)" style="stroke:#000000; stroke-width:4; stroke-opacity:1; fill:none" points="
  182.008,737.822 205.177,737.822 
  "/>
<polyline clip-path="url(#clip6200)" style="stroke:#000000; stroke-width:4; stroke-opacity:1; fill:none" points="
  182.008,442.451 205.177,442.451 
  "/>
<polyline clip-path="url(#clip6200)" style="stroke:#000000; stroke-width:4; stroke-opacity:1; fill:none" points="
  182.008,147.08 205.177,147.08 
  "/>
<g clip-path="url(#clip6200)">
<text style="fill:#000000; fill-opacity:1; font-family:Arial,Helvetica Neue,Helvetica,sans-serif; font-size:48px; text-anchor:middle;" transform="rotate(0, 496.395, 1541.47)" x="496.395" y="1541.47">-1.0</text>
</g>
<g clip-path="url(#clip6200)">
<text style="fill:#000000; fill-opacity:1; font-family:Arial,Helvetica Neue,Helvetica,sans-serif; font-size:48px; text-anchor:middle;" transform="rotate(0, 821.889, 1541.47)" x="821.889" y="1541.47">-0.5</text>
</g>
<g clip-path="url(#clip6200)">
<text style="fill:#000000; fill-opacity:1; font-family:Arial,Helvetica Neue,Helvetica,sans-serif; font-size:48px; text-anchor:middle;" transform="rotate(0, 1147.38, 1541.47)" x="1147.38" y="1541.47">0.0</text>
</g>
<g clip-path="url(#clip6200)">
<text style="fill:#000000; fill-opacity:1; font-family:Arial,Helvetica Neue,Helvetica,sans-serif; font-size:48px; text-anchor:middle;" transform="rotate(0, 1472.88, 1541.47)" x="1472.88" y="1541.47">0.5</text>
</g>
<g clip-path="url(#clip6200)">
<text style="fill:#000000; fill-opacity:1; font-family:Arial,Helvetica Neue,Helvetica,sans-serif; font-size:48px; text-anchor:middle;" transform="rotate(0, 1798.37, 1541.47)" x="1798.37" y="1541.47">1.0</text>
</g>
<g clip-path="url(#clip6200)">
<text style="fill:#000000; fill-opacity:1; font-family:Arial,Helvetica Neue,Helvetica,sans-serif; font-size:48px; text-anchor:end;" transform="rotate(0, 158.008, 1346.06)" x="158.008" y="1346.06">-1.0</text>
</g>
<g clip-path="url(#clip6200)">
<text style="fill:#000000; fill-opacity:1; font-family:Arial,Helvetica Neue,Helvetica,sans-serif; font-size:48px; text-anchor:end;" transform="rotate(0, 158.008, 1050.69)" x="158.008" y="1050.69">-0.5</text>
</g>
<g clip-path="url(#clip6200)">
<text style="fill:#000000; fill-opacity:1; font-family:Arial,Helvetica Neue,Helvetica,sans-serif; font-size:48px; text-anchor:end;" transform="rotate(0, 158.008, 755.322)" x="158.008" y="755.322">0.0</text>
</g>
<g clip-path="url(#clip6200)">
<text style="fill:#000000; fill-opacity:1; font-family:Arial,Helvetica Neue,Helvetica,sans-serif; font-size:48px; text-anchor:end;" transform="rotate(0, 158.008, 459.951)" x="158.008" y="459.951">0.5</text>
</g>
<g clip-path="url(#clip6200)">
<text style="fill:#000000; fill-opacity:1; font-family:Arial,Helvetica Neue,Helvetica,sans-serif; font-size:48px; text-anchor:end;" transform="rotate(0, 158.008, 164.58)" x="158.008" y="164.58">1.0</text>
</g>
<path clip-path="url(#clip6202)" d="
M496.395 1328.56 L496.395 1328.56 L626.593 1328.56 L756.79 1328.56 L886.987 1328.56 L1017.18 1328.56 L1147.38 1328.56 L1277.58 1328.56 L1407.78 1328.56 L1537.97 1328.56 
  L1668.17 1328.56 L1798.37 1328.56 L1798.37 1328.56 L1798.37 1328.56 L1798.37 1328.56 L1798.37 1210.42 L1798.37 1092.27 L1798.37 974.119 L1798.37 855.971 L1798.37 737.822 
  L1798.37 619.674 L1798.37 501.525 L1798.37 383.377 L1798.37 265.228 L1798.37 147.08 L1798.37 147.08 L1798.37 147.08 L1798.37 147.08 L1668.17 147.08 L1537.97 147.08 
  L1407.78 147.08 L1277.58 147.08 L1147.38 147.08 L1017.18 147.08 L886.987 147.08 L756.79 147.08 L626.593 147.08 L496.395 147.08 L496.395 147.08 L496.395 147.08 
  L496.395 147.08 L496.395 265.228 L496.395 383.377 L496.395 501.525 L496.395 619.674 L496.395 737.822 L496.395 855.971 L496.395 974.119 L496.395 1092.27 L496.395 1210.42 
  L496.395 1328.56 L496.395 1328.56 L496.395 1328.56  Z
  " fill="#000003" fill-rule="evenodd" fill-opacity="1"/>
<path clip-path="url(#clip6202)" d="
M496.395 1328.56 L496.395 1328.56 L626.593 1328.56 L756.79 1328.56 L886.987 1328.56 L1017.18 1328.56 L1147.38 1328.56 L1277.58 1328.56 L1407.78 1328.56 L1537.97 1328.56 
  L1668.17 1328.56 L1798.37 1328.56 L1798.37 1328.56 L1798.37 1328.56 L1798.37 1328.56 L1798.37 1210.42 L1798.37 1092.27 L1798.37 974.119 L1798.37 855.971 L1798.37 737.822 
  L1798.37 619.674 L1798.37 501.525 L1798.37 501.525 L1798.37 436.544 L1750.44 501.525 L1683.7 619.674 L1668.17 648.554 L1591.52 737.822 L1537.97 811.023 L1487.9 855.971 
  L1407.78 927.887 L1328.87 974.119 L1277.58 999.718 L1147.38 1021.38 L1017.18 999.718 L965.895 974.119 L886.987 927.887 L806.866 855.971 L756.79 811.023 L703.246 737.822 
  L626.593 648.554 L611.068 619.674 L544.326 501.525 L496.395 436.544 L496.395 501.525 L496.395 501.525 L496.395 619.674 L496.395 737.822 L496.395 855.971 L496.395 974.119 
  L496.395 1092.27 L496.395 1210.42 L496.395 1328.56 L496.395 1328.56 L496.395 1328.56 M1017.18 430.379 L1147.38 454.266 L1277.58 430.379 L1356.21 383.377 
  L1407.78 357.121 L1508.11 265.228 L1537.97 237.879 L1614.4 147.08 L1537.97 147.08 L1537.97 147.08 L1407.78 147.08 L1277.58 147.08 L1147.38 147.08 L1017.18 147.08 
  L886.987 147.08 L756.79 147.08 L626.593 147.08 L680.366 147.08 L756.79 237.879 L786.652 265.228 L886.987 357.121 L938.551 383.377 L1017.18 430.379  Z
  " fill="#0c0727" fill-rule="evenodd" fill-opacity="1"/>
<path clip-path="url(#clip6202)" d="
M496.395 1328.56 L496.395 1328.56 L626.593 1328.56 L756.79 1328.56 L886.987 1328.56 L1017.18 1328.56 L1147.38 1328.56 L1277.58 1328.56 L1407.78 1328.56 L1537.97 1328.56 
  L1668.17 1328.56 L1798.37 1328.56 L1798.37 1328.56 L1798.37 1328.56 L1798.37 1328.56 L1798.37 1210.42 L1798.37 1092.27 L1798.37 974.119 L1798.37 855.971 L1798.37 737.822 
  L1798.37 619.674 L1798.37 619.674 L1798.37 560.599 L1757.2 619.674 L1687.43 737.822 L1668.17 772.469 L1598.19 855.971 L1537.97 936.527 L1496.23 974.119 L1407.78 1053.78 
  L1340.65 1092.27 L1277.58 1124.52 L1147.38 1147.12 L1017.18 1124.52 L954.115 1092.27 L886.987 1053.78 L798.533 974.119 L756.79 936.527 L696.576 855.971 L626.593 772.469 
  L607.334 737.822 L537.56 619.674 L496.395 560.599 L496.395 619.674 L496.395 619.674 L496.395 737.822 L496.395 855.971 L496.395 974.119 L496.395 1092.27 L496.395 1210.42 
  L496.395 1328.56 L496.395 1328.56 L496.395 1328.56 M1017.18 304.253 L1147.38 328.522 L1277.58 304.253 L1344.68 265.228 L1407.78 232.498 L1501.27 147.08 
  L1407.78 147.08 L1407.78 147.08 L1277.58 147.08 L1147.38 147.08 L1017.18 147.08 L886.987 147.08 L756.79 147.08 L793.49 147.08 L886.987 232.498 L950.085 265.228 
  L1017.18 304.253  Z
  " fill="#240b4e" fill-rule="evenodd" fill-opacity="1"/>
<path clip-path="url(#clip6202)" d="
M496.395 1328.56 L496.395 1328.56 L626.593 1328.56 L756.79 1328.56 L886.987 1328.56 L1017.18 1328.56 L1147.38 1328.56 L1277.58 1328.56 L1407.78 1328.56 L1537.97 1328.56 
  L1668.17 1328.56 L1798.37 1328.56 L1798.37 1328.56 L1798.37 1328.56 L1798.37 1328.56 L1798.37 1210.42 L1798.37 1092.27 L1798.37 974.119 L1798.37 855.971 L1798.37 737.822 
  L1798.37 737.822 L1798.37 655.775 L1742.9 737.822 L1675.44 855.971 L1668.17 868.791 L1581.1 974.119 L1537.97 1031.13 L1470.21 1092.27 L1407.78 1148.59 L1298.67 1210.42 
  L1277.58 1221.35 L1147.38 1243.24 L1017.18 1221.35 L996.091 1210.42 L886.987 1148.59 L824.554 1092.27 L756.79 1031.13 L713.668 974.119 L626.593 868.791 L619.324 855.971 
  L551.865 737.822 L496.395 655.775 L496.395 737.822 L496.395 737.822 L496.395 855.971 L496.395 974.119 L496.395 1092.27 L496.395 1210.42 L496.395 1328.56 L496.395 1328.56 
  L496.395 1328.56 M1017.18 209.314 L1147.38 232.409 L1277.58 209.314 L1386.2 147.08 L1277.58 147.08 L1277.58 147.08 L1147.38 147.08 L1017.18 147.08 
  L886.987 147.08 L908.567 147.08 L1017.18 209.314  Z
  " fill="#420a67" fill-rule="evenodd" fill-opacity="1"/>
<path clip-path="url(#clip6202)" d="
M496.395 1328.56 L496.395 1328.56 L626.593 1328.56 L756.79 1328.56 L886.987 1328.56 L1017.18 1328.56 L1147.38 1328.56 L1277.58 1328.56 L1407.78 1328.56 L1537.97 1328.56 
  L1668.17 1328.56 L1798.37 1328.56 L1798.37 1328.56 L1798.37 1328.56 L1798.37 1328.56 L1798.37 1210.42 L1798.37 1092.27 L1798.37 974.119 L1798.37 855.971 L1798.37 737.822 
  L1798.37 737.822 L1798.37 737.822 L1798.37 737.822 L1719.98 855.971 L1668.17 947.347 L1646.04 974.119 L1553.26 1092.27 L1537.97 1112.33 L1429.37 1210.42 L1407.78 1229.92 
  L1277.58 1299.91 L1147.38 1325.28 L1017.18 1299.91 L886.987 1229.92 L865.391 1210.42 L756.79 1112.33 L741.503 1092.27 L648.725 974.119 L626.593 947.347 L574.785 855.971 
  L496.395 737.822 L496.395 737.822 L496.395 737.822 L496.395 737.822 L496.395 855.971 L496.395 974.119 L496.395 1092.27 L496.395 1210.42 L496.395 1328.56 L496.395 1328.56 
  L496.395 1328.56 M1147.38 150.362 L1163.9 147.08 L1147.38 147.08 L1147.38 147.08 L1017.18 147.08 L1130.86 147.08 L1147.38 150.362  Z
  " fill="#5d126d" fill-rule="evenodd" fill-opacity="1"/>
<path clip-path="url(#clip6202)" d="
M496.395 1328.56 L496.395 1328.56 L626.593 1328.56 L756.79 1328.56 L886.987 1328.56 L886.987 1328.56 L938.511 1328.56 L886.987 1299.59 L788.26 1210.42 L756.79 1181.99 
  L688.422 1092.27 L626.593 1016.82 L602.065 974.119 L530.245 855.971 L496.395 804.952 L496.395 855.971 L496.395 855.971 L496.395 974.119 L496.395 1092.27 L496.395 1210.42 
  L496.395 1328.56 L496.395 1328.56 L496.395 1328.56 M1407.78 1328.56 L1537.97 1328.56 L1668.17 1328.56 L1798.37 1328.56 L1798.37 1328.56 L1798.37 1328.56 
  L1798.37 1328.56 L1798.37 1210.42 L1798.37 1092.27 L1798.37 974.119 L1798.37 855.971 L1798.37 855.971 L1798.37 804.952 L1764.52 855.971 L1692.7 974.119 L1668.17 1016.82 
  L1606.34 1092.27 L1537.97 1181.99 L1506.5 1210.42 L1407.78 1299.59 L1356.25 1328.56 L1277.58 1328.56 L1407.78 1328.56  Z
  " fill="#781c6d" fill-rule="evenodd" fill-opacity="1"/>
<path clip-path="url(#clip6202)" d="
M496.395 1328.56 L496.395 1328.56 L626.593 1328.56 L756.79 1328.56 L756.79 1328.56 L849.121 1328.56 L756.79 1245.11 L730.219 1210.42 L635.341 1092.27 L626.593 1081.59 
  L564.858 974.119 L496.395 869.603 L496.395 974.119 L496.395 974.119 L496.395 1092.27 L496.395 1210.42 L496.395 1328.56 L496.395 1328.56 L496.395 1328.56 M1537.97 1328.56 L1668.17 1328.56 L1798.37 1328.56 L1798.37 1328.56 L1798.37 1328.56 L1798.37 1328.56 L1798.37 1210.42 L1798.37 1092.27 L1798.37 974.119 L1798.37 974.119 
  L1798.37 869.603 L1729.91 974.119 L1668.17 1081.59 L1659.42 1092.27 L1564.54 1210.42 L1537.97 1245.11 L1445.64 1328.56 L1407.78 1328.56 L1537.97 1328.56  Z
  " fill="#942666" fill-rule="evenodd" fill-opacity="1"/>
<path clip-path="url(#clip6202)" d="
M496.395 1328.56 L496.395 1328.56 L626.593 1328.56 L756.79 1328.56 L756.79 1328.56 L784.282 1328.56 L756.79 1303.72 L685.336 1210.42 L626.593 1138.29 L599.909 1092.27 
  L527.65 974.119 L496.395 926.406 L496.395 974.119 L496.395 974.119 L496.395 1092.27 L496.395 1210.42 L496.395 1328.56 L496.395 1328.56 L496.395 1328.56 M1537.97 1328.56 L1668.17 1328.56 L1798.37 1328.56 L1798.37 1328.56 L1798.37 1328.56 L1798.37 1328.56 L1798.37 1210.42 L1798.37 1092.27 L1798.37 974.119 L1798.37 974.119 
  L1798.37 926.406 L1767.11 974.119 L1694.85 1092.27 L1668.17 1138.29 L1609.43 1210.42 L1537.97 1303.72 L1510.48 1328.56 L1407.78 1328.56 L1537.97 1328.56  Z
  " fill="#ad305b" fill-rule="evenodd" fill-opacity="1"/>
<path clip-path="url(#clip6202)" d="
M496.395 1328.56 L496.395 1328.56 L626.593 1328.56 L626.593 1328.56 L734.396 1328.56 L640.453 1210.42 L626.593 1193.4 L567.961 1092.27 L496.395 981.996 L496.395 1092.27 
  L496.395 1092.27 L496.395 1210.42 L496.395 1328.56 L496.395 1328.56 L496.395 1328.56 M1668.17 1328.56 L1798.37 1328.56 L1798.37 1328.56 L1798.37 1328.56 
  L1798.37 1328.56 L1798.37 1210.42 L1798.37 1092.27 L1798.37 1092.27 L1798.37 981.996 L1726.8 1092.27 L1668.17 1193.4 L1654.31 1210.42 L1560.37 1328.56 L1537.97 1328.56 
  L1668.17 1328.56  Z
  " fill="#c73e4c" fill-rule="evenodd" fill-opacity="1"/>
<path clip-path="url(#clip6202)" d="
M496.395 1328.56 L496.395 1328.56 L626.593 1328.56 L626.593 1328.56 L695.517 1328.56 L626.593 1243.56 L607.245 1210.42 L536.012 1092.27 L496.395 1031.22 L496.395 1092.27 
  L496.395 1092.27 L496.395 1210.42 L496.395 1328.56 L496.395 1328.56 L496.395 1328.56 M1668.17 1328.56 L1798.37 1328.56 L1798.37 1328.56 L1798.37 1328.56 
  L1798.37 1328.56 L1798.37 1210.42 L1798.37 1092.27 L1798.37 1092.27 L1798.37 1031.22 L1758.75 1092.27 L1687.52 1210.42 L1668.17 1243.56 L1599.25 1328.56 L1537.97 1328.56 
  L1668.17 1328.56  Z
  " fill="#db503a" fill-rule="evenodd" fill-opacity="1"/>
<path clip-path="url(#clip6202)" d="
M496.395 1328.56 L496.395 1328.56 L626.593 1328.56 L626.593 1328.56 L656.638 1328.56 L626.593 1291.51 L579.252 1210.42 L504.063 1092.27 L496.395 1080.45 L496.395 1092.27 
  L496.395 1092.27 L496.395 1210.42 L496.395 1328.56 L496.395 1328.56 L496.395 1328.56 M1668.17 1328.56 L1798.37 1328.56 L1798.37 1328.56 L1798.37 1328.56 
  L1798.37 1328.56 L1798.37 1210.42 L1798.37 1092.27 L1798.37 1092.27 L1798.37 1080.45 L1790.7 1092.27 L1715.51 1210.42 L1668.17 1291.51 L1638.13 1328.56 L1537.97 1328.56 
  L1668.17 1328.56  Z
  " fill="#ec6925" fill-rule="evenodd" fill-opacity="1"/>
<path clip-path="url(#clip6202)" d="
M496.395 1328.56 L496.395 1328.56 L496.395 1328.56 L620.934 1328.56 L551.26 1210.42 L496.395 1125.28 L496.395 1210.42 L496.395 1210.42 L496.395 1328.56 L496.395 1328.56 
  L496.395 1328.56 M1798.37 1328.56 L1798.37 1328.56 L1798.37 1328.56 L1798.37 1328.56 L1798.37 1210.42 L1798.37 1210.42 L1798.37 1125.28 L1743.5 1210.42 
  L1673.83 1328.56 L1668.17 1328.56 L1798.37 1328.56  Z
  " fill="#f7850e" fill-rule="evenodd" fill-opacity="1"/>
<path clip-path="url(#clip6202)" d="
M496.395 1328.56 L496.395 1328.56 L496.395 1328.56 L596.026 1328.56 L523.268 1210.42 L496.395 1168.72 L496.395 1210.42 L496.395 1210.42 L496.395 1328.56 L496.395 1328.56 
  L496.395 1328.56 M1798.37 1328.56 L1798.37 1328.56 L1798.37 1328.56 L1798.37 1328.56 L1798.37 1210.42 L1798.37 1210.42 L1798.37 1168.72 L1771.5 1210.42 
  L1698.74 1328.56 L1668.17 1328.56 L1798.37 1328.56  Z
  " fill="#fba40a" fill-rule="evenodd" fill-opacity="1"/>
<path clip-path="url(#clip6202)" d="
M496.395 1328.56 L496.395 1328.56 L496.395 1328.56 L571.118 1328.56 L496.395 1211.97 L496.395 1328.56 L496.395 1328.56 L496.395 1328.56 L496.395 1328.56 M1798.37 1328.56 L1798.37 1328.56 L1798.37 1328.56 L1798.37 1328.56 L1798.37 1328.56 L1798.37 1211.97 L1723.65 1328.56 L1668.17 1328.56 L1798.37 1328.56  Z
  " fill="#f9c52d" fill-rule="evenodd" fill-opacity="1"/>
<path clip-path="url(#clip6202)" d="
M496.395 1328.56 L496.395 1328.56 L496.395 1328.56 L546.211 1328.56 L496.395 1250.84 L496.395 1328.56 L496.395 1328.56 L496.395 1328.56 L496.395 1328.56 M1798.37 1328.56 L1798.37 1328.56 L1798.37 1328.56 L1798.37 1328.56 L1798.37 1328.56 L1798.37 1250.84 L1748.55 1328.56 L1668.17 1328.56 L1798.37 1328.56  Z
  " fill="#f2e55f" fill-rule="evenodd" fill-opacity="1"/>
<path clip-path="url(#clip6202)" d="
M496.395 1328.56 L496.395 1328.56 L496.395 1328.56 L521.303 1328.56 L496.395 1289.7 L496.395 1328.56 L496.395 1328.56 L496.395 1328.56 L496.395 1328.56 M1798.37 1328.56 L1798.37 1328.56 L1798.37 1328.56 L1798.37 1328.56 L1798.37 1328.56 L1798.37 1289.7 L1773.46 1328.56 L1668.17 1328.56 L1798.37 1328.56  Z
  " fill="#fcfea4" fill-rule="evenodd" fill-opacity="1"/>
<polyline clip-path="url(#clip6202)" style="stroke:#000000; stroke-width:4; stroke-opacity:1; fill:none" points="
  496.395,1328.56 496.395,1328.56 626.593,1328.56 756.79,1328.56 886.987,1328.56 1017.18,1328.56 1147.38,1328.56 1277.58,1328.56 1407.78,1328.56 1537.97,1328.56 
  1668.17,1328.56 1798.37,1328.56 1798.37,1210.42 1798.37,1092.27 1798.37,974.119 1798.37,855.971 1798.37,737.822 
  1798.37,619.674 1798.37,501.525 1798.37,383.377 1798.37,265.228 1798.37,147.08 1668.17,147.08 1537.97,147.08 
  1407.78,147.08 1277.58,147.08 1147.38,147.08 1017.18,147.08 886.987,147.08 756.79,147.08 626.593,147.08 496.395,147.08 
  496.395,265.228 496.395,383.377 496.395,501.525 496.395,619.674 496.395,737.822 496.395,855.971 496.395,974.119 496.395,1092.27 496.395,1210.42 
  496.395,1328.56 
  "/>
<polyline clip-path="url(#clip6202)" style="stroke:#000000; stroke-width:4; stroke-opacity:1; fill:none" points="
  496.395,1328.56 496.395,1328.56 626.593,1328.56 756.79,1328.56 886.987,1328.56 1017.18,1328.56 1147.38,1328.56 1277.58,1328.56 1407.78,1328.56 1537.97,1328.56 
  1668.17,1328.56 1798.37,1328.56 1798.37,1210.42 1798.37,1092.27 1798.37,974.119 1798.37,855.971 1798.37,737.822 
  1798.37,619.674 1798.37,501.525 1798.37,436.544 1750.44,501.525 1683.7,619.674 1668.17,648.554 1591.52,737.822 1537.97,811.023 1487.9,855.971 
  1407.78,927.887 1328.87,974.119 1277.58,999.718 1147.38,1021.38 1017.18,999.718 965.895,974.119 886.987,927.887 806.866,855.971 756.79,811.023 703.246,737.822 
  626.593,648.554 611.068,619.674 544.326,501.525 496.395,436.544 496.395,501.525 496.395,619.674 496.395,737.822 496.395,855.971 496.395,974.119 
  496.395,1092.27 496.395,1210.42 496.395,1328.56 
  "/>
<polyline clip-path="url(#clip6202)" style="stroke:#000000; stroke-width:4; stroke-opacity:1; fill:none" points="
  1017.18,430.379 1147.38,454.266 1277.58,430.379 1356.21,383.377 1407.78,357.121 1508.11,265.228 1537.97,237.879 1614.4,147.08 1537.97,147.08 
  1407.78,147.08 1277.58,147.08 1147.38,147.08 1017.18,147.08 886.987,147.08 756.79,147.08 626.593,147.08 680.366,147.08 756.79,237.879 786.652,265.228 
  886.987,357.121 938.551,383.377 1017.18,430.379 
  "/>
<polyline clip-path="url(#clip6202)" style="stroke:#000000; stroke-width:4; stroke-opacity:1; fill:none" points="
  496.395,1328.56 496.395,1328.56 626.593,1328.56 756.79,1328.56 886.987,1328.56 1017.18,1328.56 1147.38,1328.56 1277.58,1328.56 1407.78,1328.56 1537.97,1328.56 
  1668.17,1328.56 1798.37,1328.56 1798.37,1210.42 1798.37,1092.27 1798.37,974.119 1798.37,855.971 1798.37,737.822 
  1798.37,619.674 1798.37,560.599 1757.2,619.674 1687.43,737.822 1668.17,772.469 1598.19,855.971 1537.97,936.527 1496.23,974.119 1407.78,1053.78 
  1340.65,1092.27 1277.58,1124.52 1147.38,1147.12 1017.18,1124.52 954.115,1092.27 886.987,1053.78 798.533,974.119 756.79,936.527 696.576,855.971 626.593,772.469 
  607.334,737.822 537.56,619.674 496.395,560.599 496.395,619.674 496.395,737.822 496.395,855.971 496.395,974.119 496.395,1092.27 496.395,1210.42 
  496.395,1328.56 
  "/>
<polyline clip-path="url(#clip6202)" style="stroke:#000000; stroke-width:4; stroke-opacity:1; fill:none" points="
  1017.18,304.253 1147.38,328.522 1277.58,304.253 1344.68,265.228 1407.78,232.498 1501.27,147.08 1407.78,147.08 1277.58,147.08 1147.38,147.08 
  1017.18,147.08 886.987,147.08 756.79,147.08 793.49,147.08 886.987,232.498 950.085,265.228 1017.18,304.253 
  "/>
<polyline clip-path="url(#clip6202)" style="stroke:#000000; stroke-width:4; stroke-opacity:1; fill:none" points="
  496.395,1328.56 496.395,1328.56 626.593,1328.56 756.79,1328.56 886.987,1328.56 1017.18,1328.56 1147.38,1328.56 1277.58,1328.56 1407.78,1328.56 1537.97,1328.56 
  1668.17,1328.56 1798.37,1328.56 1798.37,1210.42 1798.37,1092.27 1798.37,974.119 1798.37,855.971 1798.37,737.822 
  1798.37,655.775 1742.9,737.822 1675.44,855.971 1668.17,868.791 1581.1,974.119 1537.97,1031.13 1470.21,1092.27 1407.78,1148.59 1298.67,1210.42 
  1277.58,1221.35 1147.38,1243.24 1017.18,1221.35 996.091,1210.42 886.987,1148.59 824.554,1092.27 756.79,1031.13 713.668,974.119 626.593,868.791 619.324,855.971 
  551.865,737.822 496.395,655.775 496.395,737.822 496.395,855.971 496.395,974.119 496.395,1092.27 496.395,1210.42 496.395,1328.56 
  
  "/>
<polyline clip-path="url(#clip6202)" style="stroke:#000000; stroke-width:4; stroke-opacity:1; fill:none" points="
  1017.18,209.314 1147.38,232.409 1277.58,209.314 1386.2,147.08 1277.58,147.08 1147.38,147.08 1017.18,147.08 886.987,147.08 908.567,147.08 
  1017.18,209.314 
  "/>
<polyline clip-path="url(#clip6202)" style="stroke:#000000; stroke-width:4; stroke-opacity:1; fill:none" points="
  496.395,1328.56 496.395,1328.56 626.593,1328.56 756.79,1328.56 886.987,1328.56 1017.18,1328.56 1147.38,1328.56 1277.58,1328.56 1407.78,1328.56 1537.97,1328.56 
  1668.17,1328.56 1798.37,1328.56 1798.37,1210.42 1798.37,1092.27 1798.37,974.119 1798.37,855.971 1798.37,737.822 
  1719.98,855.971 1668.17,947.347 1646.04,974.119 1553.26,1092.27 1537.97,1112.33 1429.37,1210.42 1407.78,1229.92 
  1277.58,1299.91 1147.38,1325.28 1017.18,1299.91 886.987,1229.92 865.391,1210.42 756.79,1112.33 741.503,1092.27 648.725,974.119 626.593,947.347 574.785,855.971 
  496.395,737.822 496.395,855.971 496.395,974.119 496.395,1092.27 496.395,1210.42 496.395,1328.56 
  
  "/>
<polyline clip-path="url(#clip6202)" style="stroke:#000000; stroke-width:4; stroke-opacity:1; fill:none" points="
  1147.38,150.362 1163.9,147.08 1147.38,147.08 1017.18,147.08 1130.86,147.08 1147.38,150.362 
  "/>
<polyline clip-path="url(#clip6202)" style="stroke:#000000; stroke-width:4; stroke-opacity:1; fill:none" points="
  496.395,1328.56 496.395,1328.56 626.593,1328.56 756.79,1328.56 886.987,1328.56 938.511,1328.56 886.987,1299.59 788.26,1210.42 756.79,1181.99 
  688.422,1092.27 626.593,1016.82 602.065,974.119 530.245,855.971 496.395,804.952 496.395,855.971 496.395,974.119 496.395,1092.27 496.395,1210.42 
  496.395,1328.56 
  "/>
<polyline clip-path="url(#clip6202)" style="stroke:#000000; stroke-width:4; stroke-opacity:1; fill:none" points="
  1407.78,1328.56 1537.97,1328.56 1668.17,1328.56 1798.37,1328.56 1798.37,1210.42 1798.37,1092.27 1798.37,974.119 
  1798.37,855.971 1798.37,804.952 1764.52,855.971 1692.7,974.119 1668.17,1016.82 1606.34,1092.27 1537.97,1181.99 1506.5,1210.42 1407.78,1299.59 
  1356.25,1328.56 1277.58,1328.56 1407.78,1328.56 
  "/>
<polyline clip-path="url(#clip6202)" style="stroke:#000000; stroke-width:4; stroke-opacity:1; fill:none" points="
  496.395,1328.56 496.395,1328.56 626.593,1328.56 756.79,1328.56 849.121,1328.56 756.79,1245.11 730.219,1210.42 635.341,1092.27 626.593,1081.59 
  564.858,974.119 496.395,869.603 496.395,974.119 496.395,1092.27 496.395,1210.42 496.395,1328.56 
  "/>
<polyline clip-path="url(#clip6202)" style="stroke:#000000; stroke-width:4; stroke-opacity:1; fill:none" points="
  1537.97,1328.56 1668.17,1328.56 1798.37,1328.56 1798.37,1210.42 1798.37,1092.27 1798.37,974.119 
  1798.37,869.603 1729.91,974.119 1668.17,1081.59 1659.42,1092.27 1564.54,1210.42 1537.97,1245.11 1445.64,1328.56 1407.78,1328.56 1537.97,1328.56 
  "/>
<polyline clip-path="url(#clip6202)" style="stroke:#000000; stroke-width:4; stroke-opacity:1; fill:none" points="
  496.395,1328.56 496.395,1328.56 626.593,1328.56 756.79,1328.56 784.282,1328.56 756.79,1303.72 685.336,1210.42 626.593,1138.29 599.909,1092.27 
  527.65,974.119 496.395,926.406 496.395,974.119 496.395,1092.27 496.395,1210.42 496.395,1328.56 
  "/>
<polyline clip-path="url(#clip6202)" style="stroke:#000000; stroke-width:4; stroke-opacity:1; fill:none" points="
  1537.97,1328.56 1668.17,1328.56 1798.37,1328.56 1798.37,1210.42 1798.37,1092.27 1798.37,974.119 
  1798.37,926.406 1767.11,974.119 1694.85,1092.27 1668.17,1138.29 1609.43,1210.42 1537.97,1303.72 1510.48,1328.56 1407.78,1328.56 1537.97,1328.56 
  "/>
<polyline clip-path="url(#clip6202)" style="stroke:#000000; stroke-width:4; stroke-opacity:1; fill:none" points="
  496.395,1328.56 496.395,1328.56 626.593,1328.56 734.396,1328.56 640.453,1210.42 626.593,1193.4 567.961,1092.27 496.395,981.996 496.395,1092.27 
  496.395,1210.42 496.395,1328.56 
  "/>
<polyline clip-path="url(#clip6202)" style="stroke:#000000; stroke-width:4; stroke-opacity:1; fill:none" points="
  1668.17,1328.56 1798.37,1328.56 1798.37,1210.42 1798.37,1092.27 1798.37,981.996 1726.8,1092.27 
  1668.17,1193.4 1654.31,1210.42 1560.37,1328.56 1537.97,1328.56 1668.17,1328.56 
  "/>
<polyline clip-path="url(#clip6202)" style="stroke:#000000; stroke-width:4; stroke-opacity:1; fill:none" points="
  496.395,1328.56 496.395,1328.56 626.593,1328.56 695.517,1328.56 626.593,1243.56 607.245,1210.42 536.012,1092.27 496.395,1031.22 496.395,1092.27 
  496.395,1210.42 496.395,1328.56 
  "/>
<polyline clip-path="url(#clip6202)" style="stroke:#000000; stroke-width:4; stroke-opacity:1; fill:none" points="
  1668.17,1328.56 1798.37,1328.56 1798.37,1210.42 1798.37,1092.27 1798.37,1031.22 1758.75,1092.27 
  1687.52,1210.42 1668.17,1243.56 1599.25,1328.56 1537.97,1328.56 1668.17,1328.56 
  "/>
<polyline clip-path="url(#clip6202)" style="stroke:#000000; stroke-width:4; stroke-opacity:1; fill:none" points="
  496.395,1328.56 496.395,1328.56 626.593,1328.56 656.638,1328.56 626.593,1291.51 579.252,1210.42 504.063,1092.27 496.395,1080.45 496.395,1092.27 
  496.395,1210.42 496.395,1328.56 
  "/>
<polyline clip-path="url(#clip6202)" style="stroke:#000000; stroke-width:4; stroke-opacity:1; fill:none" points="
  1668.17,1328.56 1798.37,1328.56 1798.37,1210.42 1798.37,1092.27 1798.37,1080.45 1790.7,1092.27 
  1715.51,1210.42 1668.17,1291.51 1638.13,1328.56 1537.97,1328.56 1668.17,1328.56 
  "/>
<polyline clip-path="url(#clip6202)" style="stroke:#000000; stroke-width:4; stroke-opacity:1; fill:none" points="
  496.395,1328.56 496.395,1328.56 620.934,1328.56 551.26,1210.42 496.395,1125.28 496.395,1210.42 496.395,1328.56 
  
  "/>
<polyline clip-path="url(#clip6202)" style="stroke:#000000; stroke-width:4; stroke-opacity:1; fill:none" points="
  1798.37,1328.56 1798.37,1328.56 1798.37,1210.42 1798.37,1125.28 1743.5,1210.42 1673.83,1328.56 1668.17,1328.56 
  1798.37,1328.56 
  "/>
<polyline clip-path="url(#clip6202)" style="stroke:#000000; stroke-width:4; stroke-opacity:1; fill:none" points="
  496.395,1328.56 496.395,1328.56 596.026,1328.56 523.268,1210.42 496.395,1168.72 496.395,1210.42 496.395,1328.56 
  
  "/>
<polyline clip-path="url(#clip6202)" style="stroke:#000000; stroke-width:4; stroke-opacity:1; fill:none" points="
  1798.37,1328.56 1798.37,1328.56 1798.37,1210.42 1798.37,1168.72 1771.5,1210.42 1698.74,1328.56 1668.17,1328.56 
  1798.37,1328.56 
  "/>
<polyline clip-path="url(#clip6202)" style="stroke:#000000; stroke-width:4; stroke-opacity:1; fill:none" points="
  496.395,1328.56 496.395,1328.56 571.118,1328.56 496.395,1211.97 496.395,1328.56 
  "/>
<polyline clip-path="url(#clip6202)" style="stroke:#000000; stroke-width:4; stroke-opacity:1; fill:none" points="
  1798.37,1328.56 1798.37,1328.56 1798.37,1211.97 1723.65,1328.56 1668.17,1328.56 1798.37,1328.56 
  "/>
<polyline clip-path="url(#clip6202)" style="stroke:#000000; stroke-width:4; stroke-opacity:1; fill:none" points="
  496.395,1328.56 496.395,1328.56 546.211,1328.56 496.395,1250.84 496.395,1328.56 
  "/>
<polyline clip-path="url(#clip6202)" style="stroke:#000000; stroke-width:4; stroke-opacity:1; fill:none" points="
  1798.37,1328.56 1798.37,1328.56 1798.37,1250.84 1748.55,1328.56 1668.17,1328.56 1798.37,1328.56 
  "/>
<polyline clip-path="url(#clip6202)" style="stroke:#000000; stroke-width:4; stroke-opacity:1; fill:none" points="
  496.395,1328.56 496.395,1328.56 521.303,1328.56 496.395,1289.7 496.395,1328.56 
  "/>
<polyline clip-path="url(#clip6202)" style="stroke:#000000; stroke-width:4; stroke-opacity:1; fill:none" points="
  1798.37,1328.56 1798.37,1328.56 1798.37,1289.7 1773.46,1328.56 1668.17,1328.56 1798.37,1328.56 
  "/>
<polyline clip-path="url(#clip6202)" style="stroke:#e26f46; stroke-width:4; stroke-opacity:1; fill:none" points="
  496.395,1328.56 236.652,1446.71 
  "/>
<polyline clip-path="url(#clip6202)" style="stroke:#e26f46; stroke-width:4; stroke-opacity:1; fill:none" points="
  276.874,1448.19 236.652,1446.71 261.968,1415.42 
  "/>
<polyline clip-path="url(#clip6202)" style="stroke:#e26f46; stroke-width:4; stroke-opacity:1; fill:none" points="
  236.652,1446.71 496.395,1328.56 
  "/>
<polyline clip-path="url(#clip6202)" style="stroke:#e26f46; stroke-width:4; stroke-opacity:1; fill:none" points="
  496.395,1210.42 262.691,1316.75 
  "/>
<polyline clip-path="url(#clip6202)" style="stroke:#e26f46; stroke-width:4; stroke-opacity:1; fill:none" points="
  302.914,1318.22 262.691,1316.75 288.004,1285.46 
  "/>
<polyline clip-path="url(#clip6202)" style="stroke:#e26f46; stroke-width:4; stroke-opacity:1; fill:none" points="
  262.691,1316.75 496.395,1210.42 
  "/>
<polyline clip-path="url(#clip6202)" style="stroke:#e26f46; stroke-width:4; stroke-opacity:1; fill:none" points="
  496.395,1092.27 288.731,1186.79 
  "/>
<polyline clip-path="url(#clip6202)" style="stroke:#e26f46; stroke-width:4; stroke-opacity:1; fill:none" points="
  328.953,1188.26 288.731,1186.79 314.04,1155.49 
  "/>
<polyline clip-path="url(#clip6202)" style="stroke:#e26f46; stroke-width:4; stroke-opacity:1; fill:none" points="
  288.731,1186.79 496.395,1092.27 
  "/>
<polyline clip-path="url(#clip6202)" style="stroke:#e26f46; stroke-width:4; stroke-opacity:1; fill:none" points="
  496.395,974.119 314.77,1056.82 
  "/>
<polyline clip-path="url(#clip6202)" style="stroke:#e26f46; stroke-width:4; stroke-opacity:1; fill:none" points="
  354.993,1058.29 314.77,1056.82 340.074,1025.52 
  "/>
<polyline clip-path="url(#clip6202)" style="stroke:#e26f46; stroke-width:4; stroke-opacity:1; fill:none" points="
  314.77,1056.82 496.395,974.119 
  "/>
<polyline clip-path="url(#clip6202)" style="stroke:#e26f46; stroke-width:4; stroke-opacity:1; fill:none" points="
  496.395,855.971 340.81,926.86 
  "/>
<polyline clip-path="url(#clip6202)" style="stroke:#e26f46; stroke-width:4; stroke-opacity:1; fill:none" points="
  381.033,928.314 340.81,926.86 366.106,895.554 
  "/>
<polyline clip-path="url(#clip6202)" style="stroke:#e26f46; stroke-width:4; stroke-opacity:1; fill:none" points="
  340.81,926.86 496.395,855.971 
  "/>
<polyline clip-path="url(#clip6202)" style="stroke:#e26f46; stroke-width:4; stroke-opacity:1; fill:none" points="
  496.395,737.822 366.849,796.897 
  "/>
<polyline clip-path="url(#clip6202)" style="stroke:#e26f46; stroke-width:4; stroke-opacity:1; fill:none" points="
  407.073,798.337 366.849,796.897 392.136,765.582 
  "/>
<polyline clip-path="url(#clip6202)" style="stroke:#e26f46; stroke-width:4; stroke-opacity:1; fill:none" points="
  366.849,796.897 496.395,737.822 
  "/>
<polyline clip-path="url(#clip6202)" style="stroke:#e26f46; stroke-width:4; stroke-opacity:1; fill:none" points="
  496.395,619.674 392.889,666.933 
  "/>
<polyline clip-path="url(#clip6202)" style="stroke:#e26f46; stroke-width:4; stroke-opacity:1; fill:none" points="
  433.113,668.355 392.889,666.933 418.161,635.607 
  "/>
<polyline clip-path="url(#clip6202)" style="stroke:#e26f46; stroke-width:4; stroke-opacity:1; fill:none" points="
  392.889,666.933 496.395,619.674 
  "/>
<polyline clip-path="url(#clip6202)" style="stroke:#e26f46; stroke-width:4; stroke-opacity:1; fill:none" points="
  496.395,501.525 418.928,536.97 
  "/>
<polyline clip-path="url(#clip6202)" style="stroke:#e26f46; stroke-width:4; stroke-opacity:1; fill:none" points="
  459.153,538.36 418.928,536.97 444.175,505.624 
  "/>
<polyline clip-path="url(#clip6202)" style="stroke:#e26f46; stroke-width:4; stroke-opacity:1; fill:none" points="
  418.928,536.97 496.395,501.525 
  "/>
<polyline clip-path="url(#clip6202)" style="stroke:#e26f46; stroke-width:4; stroke-opacity:1; fill:none" points="
  496.395,383.377 444.968,407.006 
  "/>
<polyline clip-path="url(#clip6202)" style="stroke:#e26f46; stroke-width:4; stroke-opacity:1; fill:none" points="
  485.195,408.332 444.968,407.006 470.165,375.62 
  "/>
<polyline clip-path="url(#clip6202)" style="stroke:#e26f46; stroke-width:4; stroke-opacity:1; fill:none" points="
  444.968,407.006 496.395,383.377 
  "/>
<polyline clip-path="url(#clip6202)" style="stroke:#e26f46; stroke-width:4; stroke-opacity:1; fill:none" points="
  496.395,265.228 471.007,277.043 
  "/>
<polyline clip-path="url(#clip6202)" style="stroke:#e26f46; stroke-width:4; stroke-opacity:1; fill:none" points="
  511.24,278.174 471.007,277.043 496.051,245.535 
  "/>
<polyline clip-path="url(#clip6202)" style="stroke:#e26f46; stroke-width:4; stroke-opacity:1; fill:none" points="
  471.007,277.043 496.395,265.228 
  "/>
<polyline clip-path="url(#clip6202)" style="stroke:#e26f46; stroke-width:4; stroke-opacity:1; fill:none" points="
  496.395,147.08 497.046,147.08 
  "/>
<polyline clip-path="url(#clip6202)" style="stroke:#e26f46; stroke-width:4; stroke-opacity:1; fill:none" points="
  461.046,129.08 497.046,147.08 461.046,165.08 
  "/>
<polyline clip-path="url(#clip6202)" style="stroke:#e26f46; stroke-width:4; stroke-opacity:1; fill:none" points="
  497.046,147.08 496.395,147.08 
  "/>
<polyline clip-path="url(#clip6202)" style="stroke:#e26f46; stroke-width:4; stroke-opacity:1; fill:none" points="
  626.593,1328.56 456.295,1425.45 
  "/>
<polyline clip-path="url(#clip6202)" style="stroke:#e26f46; stroke-width:4; stroke-opacity:1; fill:none" points="
  496.486,1423.29 456.295,1425.45 478.685,1392 
  "/>
<polyline clip-path="url(#clip6202)" style="stroke:#e26f46; stroke-width:4; stroke-opacity:1; fill:none" points="
  456.295,1425.45 626.593,1328.56 
  "/>
<polyline clip-path="url(#clip6202)" style="stroke:#e26f46; stroke-width:4; stroke-opacity:1; fill:none" points="
  626.593,1210.42 477.126,1295.48 
  "/>
<polyline clip-path="url(#clip6202)" style="stroke:#e26f46; stroke-width:4; stroke-opacity:1; fill:none" points="
  517.317,1293.32 477.126,1295.48 499.51,1262.03 
  "/>
<polyline clip-path="url(#clip6202)" style="stroke:#e26f46; stroke-width:4; stroke-opacity:1; fill:none" points="
  477.126,1295.48 626.593,1210.42 
  "/>
<polyline clip-path="url(#clip6202)" style="stroke:#e26f46; stroke-width:4; stroke-opacity:1; fill:none" points="
  626.593,1092.27 497.958,1165.52 
  "/>
<polyline clip-path="url(#clip6202)" style="stroke:#e26f46; stroke-width:4; stroke-opacity:1; fill:none" points="
  538.148,1163.35 497.958,1165.52 520.334,1132.06 
  "/>
<polyline clip-path="url(#clip6202)" style="stroke:#e26f46; stroke-width:4; stroke-opacity:1; fill:none" points="
  497.958,1165.52 626.593,1092.27 
  "/>
<polyline clip-path="url(#clip6202)" style="stroke:#e26f46; stroke-width:4; stroke-opacity:1; fill:none" points="
  626.593,974.119 518.789,1035.56 
  "/>
<polyline clip-path="url(#clip6202)" style="stroke:#e26f46; stroke-width:4; stroke-opacity:1; fill:none" points="
  558.979,1033.37 518.789,1035.56 541.154,1002.09 
  "/>
<polyline clip-path="url(#clip6202)" style="stroke:#e26f46; stroke-width:4; stroke-opacity:1; fill:none" points="
  518.789,1035.56 626.593,974.119 
  "/>
<polyline clip-path="url(#clip6202)" style="stroke:#e26f46; stroke-width:4; stroke-opacity:1; fill:none" points="
  626.593,855.971 539.621,905.593 
  "/>
<polyline clip-path="url(#clip6202)" style="stroke:#e26f46; stroke-width:4; stroke-opacity:1; fill:none" points="
  579.81,903.387 539.621,905.593 561.969,872.118 
  "/>
<polyline clip-path="url(#clip6202)" style="stroke:#e26f46; stroke-width:4; stroke-opacity:1; fill:none" points="
  539.621,905.593 626.593,855.971 
  "/>
<polyline clip-path="url(#clip6202)" style="stroke:#e26f46; stroke-width:4; stroke-opacity:1; fill:none" points="
  626.593,737.822 560.453,775.63 
  "/>
<polyline clip-path="url(#clip6202)" style="stroke:#e26f46; stroke-width:4; stroke-opacity:1; fill:none" points="
  600.639,773.391 560.453,775.63 582.774,742.137 
  "/>
<polyline clip-path="url(#clip6202)" style="stroke:#e26f46; stroke-width:4; stroke-opacity:1; fill:none" points="
  560.453,775.63 626.593,737.822 
  "/>
<polyline clip-path="url(#clip6202)" style="stroke:#e26f46; stroke-width:4; stroke-opacity:1; fill:none" points="
  626.593,619.674 581.284,645.666 
  "/>
<polyline clip-path="url(#clip6202)" style="stroke:#e26f46; stroke-width:4; stroke-opacity:1; fill:none" points="
  621.468,643.366 581.284,645.666 603.554,612.139 
  "/>
<polyline clip-path="url(#clip6202)" style="stroke:#e26f46; stroke-width:4; stroke-opacity:1; fill:none" points="
  581.284,645.666 626.593,619.674 
  "/>
<polyline clip-path="url(#clip6202)" style="stroke:#e26f46; stroke-width:4; stroke-opacity:1; fill:none" points="
  626.593,501.525 602.116,515.703 
  "/>
<polyline clip-path="url(#clip6202)" style="stroke:#e26f46; stroke-width:4; stroke-opacity:1; fill:none" points="
  642.289,513.235 602.116,515.703 624.245,482.083 
  "/>
<polyline clip-path="url(#clip6202)" style="stroke:#e26f46; stroke-width:4; stroke-opacity:1; fill:none" points="
  602.116,515.703 626.593,501.525 
  "/>
<polyline clip-path="url(#clip6202)" style="stroke:#e26f46; stroke-width:4; stroke-opacity:1; fill:none" points="
  626.593,383.377 622.947,385.74 
  "/>
<polyline clip-path="url(#clip6202)" style="stroke:#e26f46; stroke-width:4; stroke-opacity:1; fill:none" points="
  662.947,381.263 622.947,385.74 643.366,351.054 
  "/>
<polyline clip-path="url(#clip6202)" style="stroke:#e26f46; stroke-width:4; stroke-opacity:1; fill:none" points="
  622.947,385.74 626.593,383.377 
  "/>
<polyline clip-path="url(#clip6202)" style="stroke:#e26f46; stroke-width:4; stroke-opacity:1; fill:none" points="
  626.593,265.228 643.779,255.776 
  "/>
<polyline clip-path="url(#clip6202)" style="stroke:#e26f46; stroke-width:4; stroke-opacity:1; fill:none" points="
  603.56,257.353 643.779,255.776 620.909,288.897 
  "/>
<polyline clip-path="url(#clip6202)" style="stroke:#e26f46; stroke-width:4; stroke-opacity:1; fill:none" points="
  643.779,255.776 626.593,265.228 
  "/>
<polyline clip-path="url(#clip6202)" style="stroke:#e26f46; stroke-width:4; stroke-opacity:1; fill:none" points="
  626.593,147.08 664.61,125.813 
  "/>
<polyline clip-path="url(#clip6202)" style="stroke:#e26f46; stroke-width:4; stroke-opacity:1; fill:none" points="
  624.404,127.679 664.61,125.813 641.98,159.097 
  "/>
<polyline clip-path="url(#clip6202)" style="stroke:#e26f46; stroke-width:4; stroke-opacity:1; fill:none" points="
  664.61,125.813 626.593,147.08 
  "/>
<polyline clip-path="url(#clip6202)" style="stroke:#e26f46; stroke-width:4; stroke-opacity:1; fill:none" points="
  756.79,1328.56 650.94,1408.91 
  "/>
<polyline clip-path="url(#clip6202)" style="stroke:#e26f46; stroke-width:4; stroke-opacity:1; fill:none" points="
  690.498,1401.48 650.94,1408.91 668.733,1372.8 
  "/>
<polyline clip-path="url(#clip6202)" style="stroke:#e26f46; stroke-width:4; stroke-opacity:1; fill:none" points="
  650.94,1408.91 756.79,1328.56 
  "/>
<polyline clip-path="url(#clip6202)" style="stroke:#e26f46; stroke-width:4; stroke-opacity:1; fill:none" points="
  756.79,1210.42 666.563,1278.94 
  "/>
<polyline clip-path="url(#clip6202)" style="stroke:#e26f46; stroke-width:4; stroke-opacity:1; fill:none" points="
  706.119,1271.5 666.563,1278.94 684.345,1242.83 
  "/>
<polyline clip-path="url(#clip6202)" style="stroke:#e26f46; stroke-width:4; stroke-opacity:1; fill:none" points="
  666.563,1278.94 756.79,1210.42 
  "/>
<polyline clip-path="url(#clip6202)" style="stroke:#e26f46; stroke-width:4; stroke-opacity:1; fill:none" points="
  756.79,1092.27 682.187,1148.98 
  "/>
<polyline clip-path="url(#clip6202)" style="stroke:#e26f46; stroke-width:4; stroke-opacity:1; fill:none" points="
  721.74,1141.52 682.187,1148.98 699.953,1112.86 
  "/>
<polyline clip-path="url(#clip6202)" style="stroke:#e26f46; stroke-width:4; stroke-opacity:1; fill:none" points="
  682.187,1148.98 756.79,1092.27 
  "/>
<polyline clip-path="url(#clip6202)" style="stroke:#e26f46; stroke-width:4; stroke-opacity:1; fill:none" points="
  756.79,974.119 697.811,1019.02 
  "/>
<polyline clip-path="url(#clip6202)" style="stroke:#e26f46; stroke-width:4; stroke-opacity:1; fill:none" points="
  737.358,1011.53 697.811,1019.02 715.553,982.888 
  "/>
<polyline clip-path="url(#clip6202)" style="stroke:#e26f46; stroke-width:4; stroke-opacity:1; fill:none" points="
  697.811,1019.02 756.79,974.119 
  "/>
<polyline clip-path="url(#clip6202)" style="stroke:#e26f46; stroke-width:4; stroke-opacity:1; fill:none" points="
  756.79,855.971 713.434,889.052 
  "/>
<polyline clip-path="url(#clip6202)" style="stroke:#e26f46; stroke-width:4; stroke-opacity:1; fill:none" points="
  752.973,881.525 713.434,889.052 731.135,852.904 
  "/>
<polyline clip-path="url(#clip6202)" style="stroke:#e26f46; stroke-width:4; stroke-opacity:1; fill:none" points="
  713.434,889.052 756.79,855.971 
  "/>
<polyline clip-path="url(#clip6202)" style="stroke:#e26f46; stroke-width:4; stroke-opacity:1; fill:none" points="
  756.79,737.822 729.058,759.089 
  "/>
<polyline clip-path="url(#clip6202)" style="stroke:#e26f46; stroke-width:4; stroke-opacity:1; fill:none" points="
  768.579,751.465 729.058,759.089 746.672,722.898 
  "/>
<polyline clip-path="url(#clip6202)" style="stroke:#e26f46; stroke-width:4; stroke-opacity:1; fill:none" points="
  729.058,759.089 756.79,737.822 
  "/>
<polyline clip-path="url(#clip6202)" style="stroke:#e26f46; stroke-width:4; stroke-opacity:1; fill:none" points="
  756.79,619.674 744.682,629.126 
  "/>
<polyline clip-path="url(#clip6202)" style="stroke:#e26f46; stroke-width:4; stroke-opacity:1; fill:none" points="
  784.135,621.163 744.682,629.126 761.983,592.785 
  "/>
<polyline clip-path="url(#clip6202)" style="stroke:#e26f46; stroke-width:4; stroke-opacity:1; fill:none" points="
  744.682,629.126 756.79,619.674 
  "/>
<polyline clip-path="url(#clip6202)" style="stroke:#e26f46; stroke-width:4; stroke-opacity:1; fill:none" points="
  756.79,501.525 760.305,499.162 
  "/>
<polyline clip-path="url(#clip6202)" style="stroke:#e26f46; stroke-width:4; stroke-opacity:1; fill:none" points="
  720.386,504.307 760.305,499.162 740.47,534.184 
  "/>
<polyline clip-path="url(#clip6202)" style="stroke:#e26f46; stroke-width:4; stroke-opacity:1; fill:none" points="
  760.305,499.162 756.79,501.525 
  "/>
<polyline clip-path="url(#clip6202)" style="stroke:#e26f46; stroke-width:4; stroke-opacity:1; fill:none" points="
  756.79,383.377 775.929,369.199 
  "/>
<polyline clip-path="url(#clip6202)" style="stroke:#e26f46; stroke-width:4; stroke-opacity:1; fill:none" points="
  736.287,376.164 775.929,369.199 757.716,405.092 
  "/>
<polyline clip-path="url(#clip6202)" style="stroke:#e26f46; stroke-width:4; stroke-opacity:1; fill:none" points="
  775.929,369.199 756.79,383.377 
  "/>
<polyline clip-path="url(#clip6202)" style="stroke:#e26f46; stroke-width:4; stroke-opacity:1; fill:none" points="
  756.79,265.228 791.553,239.235 
  "/>
<polyline clip-path="url(#clip6202)" style="stroke:#e26f46; stroke-width:4; stroke-opacity:1; fill:none" points="
  751.942,246.378 791.553,239.235 773.5,275.209 
  "/>
<polyline clip-path="url(#clip6202)" style="stroke:#e26f46; stroke-width:4; stroke-opacity:1; fill:none" points="
  791.553,239.235 756.79,265.228 
  "/>
<polyline clip-path="url(#clip6202)" style="stroke:#e26f46; stroke-width:4; stroke-opacity:1; fill:none" points="
  756.79,147.08 807.176,109.272 
  "/>
<polyline clip-path="url(#clip6202)" style="stroke:#e26f46; stroke-width:4; stroke-opacity:1; fill:none" points="
  767.578,116.481 807.176,109.272 789.185,145.276 
  "/>
<polyline clip-path="url(#clip6202)" style="stroke:#e26f46; stroke-width:4; stroke-opacity:1; fill:none" points="
  807.176,109.272 756.79,147.08 
  "/>
<polyline clip-path="url(#clip6202)" style="stroke:#e26f46; stroke-width:4; stroke-opacity:1; fill:none" points="
  886.987,1328.56 826.836,1397.09 
  "/>
<polyline clip-path="url(#clip6202)" style="stroke:#e26f46; stroke-width:4; stroke-opacity:1; fill:none" points="
  864.113,1381.91 826.836,1397.09 837.057,1358.16 
  "/>
<polyline clip-path="url(#clip6202)" style="stroke:#e26f46; stroke-width:4; stroke-opacity:1; fill:none" points="
  826.836,1397.09 886.987,1328.56 
  "/>
<polyline clip-path="url(#clip6202)" style="stroke:#e26f46; stroke-width:4; stroke-opacity:1; fill:none" points="
  886.987,1210.42 837.252,1267.13 
  "/>
<polyline clip-path="url(#clip6202)" style="stroke:#e26f46; stroke-width:4; stroke-opacity:1; fill:none" points="
  874.522,1251.93 837.252,1267.13 847.456,1228.19 
  "/>
<polyline clip-path="url(#clip6202)" style="stroke:#e26f46; stroke-width:4; stroke-opacity:1; fill:none" points="
  837.252,1267.13 886.987,1210.42 
  "/>
<polyline clip-path="url(#clip6202)" style="stroke:#e26f46; stroke-width:4; stroke-opacity:1; fill:none" points="
  886.987,1092.27 847.668,1137.16 
  "/>
<polyline clip-path="url(#clip6202)" style="stroke:#e26f46; stroke-width:4; stroke-opacity:1; fill:none" points="
  884.927,1121.94 847.668,1137.16 857.845,1098.22 
  "/>
<polyline clip-path="url(#clip6202)" style="stroke:#e26f46; stroke-width:4; stroke-opacity:1; fill:none" points="
  847.668,1137.16 886.987,1092.27 
  "/>
<polyline clip-path="url(#clip6202)" style="stroke:#e26f46; stroke-width:4; stroke-opacity:1; fill:none" points="
  886.987,974.119 858.084,1007.2 
  "/>
<polyline clip-path="url(#clip6202)" style="stroke:#e26f46; stroke-width:4; stroke-opacity:1; fill:none" points="
  895.325,991.934 858.084,1007.2 868.215,968.248 
  "/>
<polyline clip-path="url(#clip6202)" style="stroke:#e26f46; stroke-width:4; stroke-opacity:1; fill:none" points="
  858.084,1007.2 886.987,974.119 
  "/>
<polyline clip-path="url(#clip6202)" style="stroke:#e26f46; stroke-width:4; stroke-opacity:1; fill:none" points="
  886.987,855.971 868.499,877.238 
  "/>
<polyline clip-path="url(#clip6202)" style="stroke:#e26f46; stroke-width:4; stroke-opacity:1; fill:none" points="
  905.703,861.878 868.499,877.238 878.534,838.259 
  "/>
<polyline clip-path="url(#clip6202)" style="stroke:#e26f46; stroke-width:4; stroke-opacity:1; fill:none" points="
  868.499,877.238 886.987,855.971 
  "/>
<polyline clip-path="url(#clip6202)" style="stroke:#e26f46; stroke-width:4; stroke-opacity:1; fill:none" points="
  886.987,737.822 878.915,747.274 
  "/>
<polyline clip-path="url(#clip6202)" style="stroke:#e26f46; stroke-width:4; stroke-opacity:1; fill:none" points="
  915.982,731.589 878.915,747.274 888.607,708.209 
  "/>
<polyline clip-path="url(#clip6202)" style="stroke:#e26f46; stroke-width:4; stroke-opacity:1; fill:none" points="
  878.915,747.274 886.987,737.822 
  "/>
<polyline clip-path="url(#clip6202)" style="stroke:#e26f46; stroke-width:4; stroke-opacity:1; fill:none" points="
  886.987,619.674 889.331,617.311 
  "/>
<polyline clip-path="url(#clip6202)" style="stroke:#e26f46; stroke-width:4; stroke-opacity:1; fill:none" points="
  851.2,630.196 889.331,617.311 876.761,655.547 
  "/>
<polyline clip-path="url(#clip6202)" style="stroke:#e26f46; stroke-width:4; stroke-opacity:1; fill:none" points="
  889.331,617.311 886.987,619.674 
  "/>
<polyline clip-path="url(#clip6202)" style="stroke:#e26f46; stroke-width:4; stroke-opacity:1; fill:none" points="
  886.987,501.525 899.747,487.347 
  "/>
<polyline clip-path="url(#clip6202)" style="stroke:#e26f46; stroke-width:4; stroke-opacity:1; fill:none" points="
  862.285,502.066 899.747,487.347 889.044,526.148 
  "/>
<polyline clip-path="url(#clip6202)" style="stroke:#e26f46; stroke-width:4; stroke-opacity:1; fill:none" points="
  899.747,487.347 886.987,501.525 
  "/>
<polyline clip-path="url(#clip6202)" style="stroke:#e26f46; stroke-width:4; stroke-opacity:1; fill:none" points="
  886.987,383.377 910.163,357.384 
  "/>
<polyline clip-path="url(#clip6202)" style="stroke:#e26f46; stroke-width:4; stroke-opacity:1; fill:none" points="
  872.769,372.276 910.163,357.384 899.64,396.233 
  "/>
<polyline clip-path="url(#clip6202)" style="stroke:#e26f46; stroke-width:4; stroke-opacity:1; fill:none" points="
  910.163,357.384 886.987,383.377 
  "/>
<polyline clip-path="url(#clip6202)" style="stroke:#e26f46; stroke-width:4; stroke-opacity:1; fill:none" points="
  886.987,265.228 920.578,227.421 
  "/>
<polyline clip-path="url(#clip6202)" style="stroke:#e26f46; stroke-width:4; stroke-opacity:1; fill:none" points="
  883.211,242.378 920.578,227.421 910.124,266.288 
  "/>
<polyline clip-path="url(#clip6202)" style="stroke:#e26f46; stroke-width:4; stroke-opacity:1; fill:none" points="
  920.578,227.421 886.987,265.228 
  "/>
<polyline clip-path="url(#clip6202)" style="stroke:#e26f46; stroke-width:4; stroke-opacity:1; fill:none" points="
  886.987,147.08 930.994,97.4572 
  "/>
<polyline clip-path="url(#clip6202)" style="stroke:#e26f46; stroke-width:4; stroke-opacity:1; fill:none" points="
  893.641,112.448 930.994,97.4572 920.575,136.335 
  "/>
<polyline clip-path="url(#clip6202)" style="stroke:#e26f46; stroke-width:4; stroke-opacity:1; fill:none" points="
  930.994,97.4572 886.987,147.08 
  "/>
<polyline clip-path="url(#clip6202)" style="stroke:#e26f46; stroke-width:4; stroke-opacity:1; fill:none" points="
  1017.18,1328.56 990.234,1390 
  "/>
<polyline clip-path="url(#clip6202)" style="stroke:#e26f46; stroke-width:4; stroke-opacity:1; fill:none" points="
  1021.18,1364.27 990.234,1390 988.212,1349.8 
  "/>
<polyline clip-path="url(#clip6202)" style="stroke:#e26f46; stroke-width:4; stroke-opacity:1; fill:none" points="
  990.234,1390 1017.18,1328.56 
  "/>
<polyline clip-path="url(#clip6202)" style="stroke:#e26f46; stroke-width:4; stroke-opacity:1; fill:none" points="
  1017.18,1210.42 995.442,1260.04 
  "/>
<polyline clip-path="url(#clip6202)" style="stroke:#e26f46; stroke-width:4; stroke-opacity:1; fill:none" points="
  1026.38,1234.29 995.442,1260.04 993.403,1219.84 
  "/>
<polyline clip-path="url(#clip6202)" style="stroke:#e26f46; stroke-width:4; stroke-opacity:1; fill:none" points="
  995.442,1260.04 1017.18,1210.42 
  "/>
<polyline clip-path="url(#clip6202)" style="stroke:#e26f46; stroke-width:4; stroke-opacity:1; fill:none" points="
  1017.18,1092.27 1000.65,1130.08 
  "/>
<polyline clip-path="url(#clip6202)" style="stroke:#e26f46; stroke-width:4; stroke-opacity:1; fill:none" points="
  1031.57,1104.3 1000.65,1130.08 998.583,1089.88 
  "/>
<polyline clip-path="url(#clip6202)" style="stroke:#e26f46; stroke-width:4; stroke-opacity:1; fill:none" points="
  1000.65,1130.08 1017.18,1092.27 
  "/>
<polyline clip-path="url(#clip6202)" style="stroke:#e26f46; stroke-width:4; stroke-opacity:1; fill:none" points="
  1017.18,974.119 1005.86,1000.11 
  "/>
<polyline clip-path="url(#clip6202)" style="stroke:#e26f46; stroke-width:4; stroke-opacity:1; fill:none" points="
  1036.74,974.301 1005.86,1000.11 1003.74,959.919 
  "/>
<polyline clip-path="url(#clip6202)" style="stroke:#e26f46; stroke-width:4; stroke-opacity:1; fill:none" points="
  1005.86,1000.11 1017.18,974.119 
  "/>
<polyline clip-path="url(#clip6202)" style="stroke:#e26f46; stroke-width:4; stroke-opacity:1; fill:none" points="
  1017.18,855.971 1011.07,870.149 
  "/>
<polyline clip-path="url(#clip6202)" style="stroke:#e26f46; stroke-width:4; stroke-opacity:1; fill:none" points="
  1041.86,844.229 1011.07,870.149 1008.8,829.963 
  "/>
<polyline clip-path="url(#clip6202)" style="stroke:#e26f46; stroke-width:4; stroke-opacity:1; fill:none" points="
  1011.07,870.149 1017.18,855.971 
  "/>
<polyline clip-path="url(#clip6202)" style="stroke:#e26f46; stroke-width:4; stroke-opacity:1; fill:none" points="
  1017.18,737.822 1016.27,740.185 
  "/>
<polyline clip-path="url(#clip6202)" style="stroke:#e26f46; stroke-width:4; stroke-opacity:1; fill:none" points="
  1046.02,713.074 1016.27,740.185 1012.43,700.12 
  "/>
<polyline clip-path="url(#clip6202)" style="stroke:#e26f46; stroke-width:4; stroke-opacity:1; fill:none" points="
  1016.27,740.185 1017.18,737.822 
  "/>
<polyline clip-path="url(#clip6202)" style="stroke:#e26f46; stroke-width:4; stroke-opacity:1; fill:none" points="
  1017.18,619.674 1021.48,610.222 
  "/>
<polyline clip-path="url(#clip6202)" style="stroke:#e26f46; stroke-width:4; stroke-opacity:1; fill:none" points="
  990.197,635.546 1021.48,610.222 1022.97,650.444 
  "/>
<polyline clip-path="url(#clip6202)" style="stroke:#e26f46; stroke-width:4; stroke-opacity:1; fill:none" points="
  1021.48,610.222 1017.18,619.674 
  "/>
<polyline clip-path="url(#clip6202)" style="stroke:#e26f46; stroke-width:4; stroke-opacity:1; fill:none" points="
  1017.18,501.525 1026.69,480.258 
  "/>
<polyline clip-path="url(#clip6202)" style="stroke:#e26f46; stroke-width:4; stroke-opacity:1; fill:none" points="
  995.567,505.781 1026.69,480.258 1028.43,520.47 
  "/>
<polyline clip-path="url(#clip6202)" style="stroke:#e26f46; stroke-width:4; stroke-opacity:1; fill:none" points="
  1026.69,480.258 1017.18,501.525 
  "/>
<polyline clip-path="url(#clip6202)" style="stroke:#e26f46; stroke-width:4; stroke-opacity:1; fill:none" points="
  1017.18,383.377 1031.9,350.295 
  "/>
<polyline clip-path="url(#clip6202)" style="stroke:#e26f46; stroke-width:4; stroke-opacity:1; fill:none" points="
  1000.82,375.874 1031.9,350.295 1033.72,390.503 
  "/>
<polyline clip-path="url(#clip6202)" style="stroke:#e26f46; stroke-width:4; stroke-opacity:1; fill:none" points="
  1031.9,350.295 1017.18,383.377 
  "/>
<polyline clip-path="url(#clip6202)" style="stroke:#e26f46; stroke-width:4; stroke-opacity:1; fill:none" points="
  1017.18,265.228 1037.1,220.332 
  "/>
<polyline clip-path="url(#clip6202)" style="stroke:#e26f46; stroke-width:4; stroke-opacity:1; fill:none" points="
  1006.05,245.938 1037.1,220.332 1038.96,260.538 
  "/>
<polyline clip-path="url(#clip6202)" style="stroke:#e26f46; stroke-width:4; stroke-opacity:1; fill:none" points="
  1037.1,220.332 1017.18,265.228 
  "/>
<polyline clip-path="url(#clip6202)" style="stroke:#e26f46; stroke-width:4; stroke-opacity:1; fill:none" points="
  1017.18,147.08 1042.31,90.3683 
  "/>
<polyline clip-path="url(#clip6202)" style="stroke:#e26f46; stroke-width:4; stroke-opacity:1; fill:none" points="
  1011.27,115.99 1042.31,90.3683 1044.19,130.574 
  "/>
<polyline clip-path="url(#clip6202)" style="stroke:#e26f46; stroke-width:4; stroke-opacity:1; fill:none" points="
  1042.31,90.3683 1017.18,147.08 
  "/>
<polyline clip-path="url(#clip6202)" style="stroke:#e26f46; stroke-width:4; stroke-opacity:1; fill:none" points="
  1147.38,1328.56 1147.38,1387.64 
  "/>
<polyline clip-path="url(#clip6202)" style="stroke:#e26f46; stroke-width:4; stroke-opacity:1; fill:none" points="
  1165.38,1351.64 1147.38,1387.64 1129.38,1351.64 
  "/>
<polyline clip-path="url(#clip6202)" style="stroke:#e26f46; stroke-width:4; stroke-opacity:1; fill:none" points="
  1147.38,1387.64 1147.38,1328.56 
  "/>
<polyline clip-path="url(#clip6202)" style="stroke:#e26f46; stroke-width:4; stroke-opacity:1; fill:none" points="
  1147.38,1210.42 1147.38,1257.68 
  "/>
<polyline clip-path="url(#clip6202)" style="stroke:#e26f46; stroke-width:4; stroke-opacity:1; fill:none" points="
  1165.38,1221.68 1147.38,1257.68 1129.38,1221.68 
  "/>
<polyline clip-path="url(#clip6202)" style="stroke:#e26f46; stroke-width:4; stroke-opacity:1; fill:none" points="
  1147.38,1257.68 1147.38,1210.42 
  "/>
<polyline clip-path="url(#clip6202)" style="stroke:#e26f46; stroke-width:4; stroke-opacity:1; fill:none" points="
  1147.38,1092.27 1147.38,1127.71 
  "/>
<polyline clip-path="url(#clip6202)" style="stroke:#e26f46; stroke-width:4; stroke-opacity:1; fill:none" points="
  1165.38,1091.71 1147.38,1127.71 1129.38,1091.71 
  "/>
<polyline clip-path="url(#clip6202)" style="stroke:#e26f46; stroke-width:4; stroke-opacity:1; fill:none" points="
  1147.38,1127.71 1147.38,1092.27 
  "/>
<polyline clip-path="url(#clip6202)" style="stroke:#e26f46; stroke-width:4; stroke-opacity:1; fill:none" points="
  1147.38,974.119 1147.38,997.749 
  "/>
<polyline clip-path="url(#clip6202)" style="stroke:#e26f46; stroke-width:4; stroke-opacity:1; fill:none" points="
  1165.38,961.749 1147.38,997.749 1129.38,961.749 
  "/>
<polyline clip-path="url(#clip6202)" style="stroke:#e26f46; stroke-width:4; stroke-opacity:1; fill:none" points="
  1147.38,997.749 1147.38,974.119 
  "/>
<polyline clip-path="url(#clip6202)" style="stroke:#e26f46; stroke-width:4; stroke-opacity:1; fill:none" points="
  1147.38,855.971 1147.38,867.786 
  "/>
<polyline clip-path="url(#clip6202)" style="stroke:#e26f46; stroke-width:4; stroke-opacity:1; fill:none" points="
  1165.38,831.786 1147.38,867.786 1129.38,831.786 
  "/>
<polyline clip-path="url(#clip6202)" style="stroke:#e26f46; stroke-width:4; stroke-opacity:1; fill:none" points="
  1147.38,867.786 1147.38,855.971 
  "/>
<polyline clip-path="url(#clip6202)" style="stroke:#e26f46; stroke-width:4; stroke-opacity:1; fill:none" points="
  1147.38,737.822 1147.38,737.822 
  "/>
<polyline clip-path="url(#clip6202)" style="stroke:#e26f46; stroke-width:4; stroke-opacity:1; fill:none" points="
  -nan,-nan -nan,-nan -nan,-nan 
  "/>
<polyline clip-path="url(#clip6202)" style="stroke:#e26f46; stroke-width:4; stroke-opacity:1; fill:none" points="
  -nan,-nan -nan,-nan 
  "/>
<polyline clip-path="url(#clip6202)" style="stroke:#e26f46; stroke-width:4; stroke-opacity:1; fill:none" points="
  1147.38,619.674 1147.38,607.859 
  "/>
<polyline clip-path="url(#clip6202)" style="stroke:#e26f46; stroke-width:4; stroke-opacity:1; fill:none" points="
  1129.38,643.859 1147.38,607.859 1165.38,643.859 
  "/>
<polyline clip-path="url(#clip6202)" style="stroke:#e26f46; stroke-width:4; stroke-opacity:1; fill:none" points="
  1147.38,607.859 1147.38,619.674 
  "/>
<polyline clip-path="url(#clip6202)" style="stroke:#e26f46; stroke-width:4; stroke-opacity:1; fill:none" points="
  1147.38,501.525 1147.38,477.896 
  "/>
<polyline clip-path="url(#clip6202)" style="stroke:#e26f46; stroke-width:4; stroke-opacity:1; fill:none" points="
  1129.38,513.896 1147.38,477.896 1165.38,513.896 
  "/>
<polyline clip-path="url(#clip6202)" style="stroke:#e26f46; stroke-width:4; stroke-opacity:1; fill:none" points="
  1147.38,477.896 1147.38,501.525 
  "/>
<polyline clip-path="url(#clip6202)" style="stroke:#e26f46; stroke-width:4; stroke-opacity:1; fill:none" points="
  1147.38,383.377 1147.38,347.932 
  "/>
<polyline clip-path="url(#clip6202)" style="stroke:#e26f46; stroke-width:4; stroke-opacity:1; fill:none" points="
  1129.38,383.932 1147.38,347.932 1165.38,383.932 
  "/>
<polyline clip-path="url(#clip6202)" style="stroke:#e26f46; stroke-width:4; stroke-opacity:1; fill:none" points="
  1147.38,347.932 1147.38,383.377 
  "/>
<polyline clip-path="url(#clip6202)" style="stroke:#e26f46; stroke-width:4; stroke-opacity:1; fill:none" points="
  1147.38,265.228 1147.38,217.969 
  "/>
<polyline clip-path="url(#clip6202)" style="stroke:#e26f46; stroke-width:4; stroke-opacity:1; fill:none" points="
  1129.38,253.969 1147.38,217.969 1165.38,253.969 
  "/>
<polyline clip-path="url(#clip6202)" style="stroke:#e26f46; stroke-width:4; stroke-opacity:1; fill:none" points="
  1147.38,217.969 1147.38,265.228 
  "/>
<polyline clip-path="url(#clip6202)" style="stroke:#e26f46; stroke-width:4; stroke-opacity:1; fill:none" points="
  1147.38,147.08 1147.38,88.0053 
  "/>
<polyline clip-path="url(#clip6202)" style="stroke:#e26f46; stroke-width:4; stroke-opacity:1; fill:none" points="
  1129.38,124.005 1147.38,88.0053 1165.38,124.005 
  "/>
<polyline clip-path="url(#clip6202)" style="stroke:#e26f46; stroke-width:4; stroke-opacity:1; fill:none" points="
  1147.38,88.0053 1147.38,147.08 
  "/>
<polyline clip-path="url(#clip6202)" style="stroke:#e26f46; stroke-width:4; stroke-opacity:1; fill:none" points="
  1277.58,1328.56 1304.53,1390 
  "/>
<polyline clip-path="url(#clip6202)" style="stroke:#e26f46; stroke-width:4; stroke-opacity:1; fill:none" points="
  1306.55,1349.8 1304.53,1390 1273.58,1364.27 
  "/>
<polyline clip-path="url(#clip6202)" style="stroke:#e26f46; stroke-width:4; stroke-opacity:1; fill:none" points="
  1304.53,1390 1277.58,1328.56 
  "/>
<polyline clip-path="url(#clip6202)" style="stroke:#e26f46; stroke-width:4; stroke-opacity:1; fill:none" points="
  1277.58,1210.42 1299.32,1260.04 
  "/>
<polyline clip-path="url(#clip6202)" style="stroke:#e26f46; stroke-width:4; stroke-opacity:1; fill:none" points="
  1301.36,1219.84 1299.32,1260.04 1268.39,1234.29 
  "/>
<polyline clip-path="url(#clip6202)" style="stroke:#e26f46; stroke-width:4; stroke-opacity:1; fill:none" points="
  1299.32,1260.04 1277.58,1210.42 
  "/>
<polyline clip-path="url(#clip6202)" style="stroke:#e26f46; stroke-width:4; stroke-opacity:1; fill:none" points="
  1277.58,1092.27 1294.11,1130.08 
  "/>
<polyline clip-path="url(#clip6202)" style="stroke:#e26f46; stroke-width:4; stroke-opacity:1; fill:none" points="
  1296.18,1089.88 1294.11,1130.08 1263.2,1104.3 
  "/>
<polyline clip-path="url(#clip6202)" style="stroke:#e26f46; stroke-width:4; stroke-opacity:1; fill:none" points="
  1294.11,1130.08 1277.58,1092.27 
  "/>
<polyline clip-path="url(#clip6202)" style="stroke:#e26f46; stroke-width:4; stroke-opacity:1; fill:none" points="
  1277.58,974.119 1288.91,1000.11 
  "/>
<polyline clip-path="url(#clip6202)" style="stroke:#e26f46; stroke-width:4; stroke-opacity:1; fill:none" points="
  1291.03,959.919 1288.91,1000.11 1258.02,974.301 
  "/>
<polyline clip-path="url(#clip6202)" style="stroke:#e26f46; stroke-width:4; stroke-opacity:1; fill:none" points="
  1288.91,1000.11 1277.58,974.119 
  "/>
<polyline clip-path="url(#clip6202)" style="stroke:#e26f46; stroke-width:4; stroke-opacity:1; fill:none" points="
  1277.58,855.971 1283.7,870.149 
  "/>
<polyline clip-path="url(#clip6202)" style="stroke:#e26f46; stroke-width:4; stroke-opacity:1; fill:none" points="
  1285.96,829.963 1283.7,870.149 1252.91,844.229 
  "/>
<polyline clip-path="url(#clip6202)" style="stroke:#e26f46; stroke-width:4; stroke-opacity:1; fill:none" points="
  1283.7,870.149 1277.58,855.971 
  "/>
<polyline clip-path="url(#clip6202)" style="stroke:#e26f46; stroke-width:4; stroke-opacity:1; fill:none" points="
  1277.58,737.822 1278.49,740.185 
  "/>
<polyline clip-path="url(#clip6202)" style="stroke:#e26f46; stroke-width:4; stroke-opacity:1; fill:none" points="
  1282.33,700.12 1278.49,740.185 1248.74,713.074 
  "/>
<polyline clip-path="url(#clip6202)" style="stroke:#e26f46; stroke-width:4; stroke-opacity:1; fill:none" points="
  1278.49,740.185 1277.58,737.822 
  "/>
<polyline clip-path="url(#clip6202)" style="stroke:#e26f46; stroke-width:4; stroke-opacity:1; fill:none" points="
  1277.58,619.674 1273.28,610.222 
  "/>
<polyline clip-path="url(#clip6202)" style="stroke:#e26f46; stroke-width:4; stroke-opacity:1; fill:none" points="
  1271.79,650.444 1273.28,610.222 1304.57,635.546 
  "/>
<polyline clip-path="url(#clip6202)" style="stroke:#e26f46; stroke-width:4; stroke-opacity:1; fill:none" points="
  1273.28,610.222 1277.58,619.674 
  "/>
<polyline clip-path="url(#clip6202)" style="stroke:#e26f46; stroke-width:4; stroke-opacity:1; fill:none" points="
  1277.58,501.525 1268.07,480.258 
  "/>
<polyline clip-path="url(#clip6202)" style="stroke:#e26f46; stroke-width:4; stroke-opacity:1; fill:none" points="
  1266.33,520.47 1268.07,480.258 1299.2,505.781 
  "/>
<polyline clip-path="url(#clip6202)" style="stroke:#e26f46; stroke-width:4; stroke-opacity:1; fill:none" points="
  1268.07,480.258 1277.58,501.525 
  "/>
<polyline clip-path="url(#clip6202)" style="stroke:#e26f46; stroke-width:4; stroke-opacity:1; fill:none" points="
  1277.58,383.377 1262.87,350.295 
  "/>
<polyline clip-path="url(#clip6202)" style="stroke:#e26f46; stroke-width:4; stroke-opacity:1; fill:none" points="
  1261.05,390.503 1262.87,350.295 1293.94,375.874 
  "/>
<polyline clip-path="url(#clip6202)" style="stroke:#e26f46; stroke-width:4; stroke-opacity:1; fill:none" points="
  1262.87,350.295 1277.58,383.377 
  "/>
<polyline clip-path="url(#clip6202)" style="stroke:#e26f46; stroke-width:4; stroke-opacity:1; fill:none" points="
  1277.58,265.228 1257.66,220.332 
  "/>
<polyline clip-path="url(#clip6202)" style="stroke:#e26f46; stroke-width:4; stroke-opacity:1; fill:none" points="
  1255.81,260.538 1257.66,220.332 1288.71,245.938 
  "/>
<polyline clip-path="url(#clip6202)" style="stroke:#e26f46; stroke-width:4; stroke-opacity:1; fill:none" points="
  1257.66,220.332 1277.58,265.228 
  "/>
<polyline clip-path="url(#clip6202)" style="stroke:#e26f46; stroke-width:4; stroke-opacity:1; fill:none" points="
  1277.58,147.08 1252.45,90.3683 
  "/>
<polyline clip-path="url(#clip6202)" style="stroke:#e26f46; stroke-width:4; stroke-opacity:1; fill:none" points="
  1250.58,130.574 1252.45,90.3683 1283.49,115.99 
  "/>
<polyline clip-path="url(#clip6202)" style="stroke:#e26f46; stroke-width:4; stroke-opacity:1; fill:none" points="
  1252.45,90.3683 1277.58,147.08 
  "/>
<polyline clip-path="url(#clip6202)" style="stroke:#e26f46; stroke-width:4; stroke-opacity:1; fill:none" points="
  1407.78,1328.56 1467.93,1397.09 
  "/>
<polyline clip-path="url(#clip6202)" style="stroke:#e26f46; stroke-width:4; stroke-opacity:1; fill:none" points="
  1457.71,1358.16 1467.93,1397.09 1430.65,1381.91 
  "/>
<polyline clip-path="url(#clip6202)" style="stroke:#e26f46; stroke-width:4; stroke-opacity:1; fill:none" points="
  1467.93,1397.09 1407.78,1328.56 
  "/>
<polyline clip-path="url(#clip6202)" style="stroke:#e26f46; stroke-width:4; stroke-opacity:1; fill:none" points="
  1407.78,1210.42 1457.51,1267.13 
  "/>
<polyline clip-path="url(#clip6202)" style="stroke:#e26f46; stroke-width:4; stroke-opacity:1; fill:none" points="
  1447.31,1228.19 1457.51,1267.13 1420.24,1251.93 
  "/>
<polyline clip-path="url(#clip6202)" style="stroke:#e26f46; stroke-width:4; stroke-opacity:1; fill:none" points="
  1457.51,1267.13 1407.78,1210.42 
  "/>
<polyline clip-path="url(#clip6202)" style="stroke:#e26f46; stroke-width:4; stroke-opacity:1; fill:none" points="
  1407.78,1092.27 1447.1,1137.16 
  "/>
<polyline clip-path="url(#clip6202)" style="stroke:#e26f46; stroke-width:4; stroke-opacity:1; fill:none" points="
  1436.92,1098.22 1447.1,1137.16 1409.84,1121.94 
  "/>
<polyline clip-path="url(#clip6202)" style="stroke:#e26f46; stroke-width:4; stroke-opacity:1; fill:none" points="
  1447.1,1137.16 1407.78,1092.27 
  "/>
<polyline clip-path="url(#clip6202)" style="stroke:#e26f46; stroke-width:4; stroke-opacity:1; fill:none" points="
  1407.78,974.119 1436.68,1007.2 
  "/>
<polyline clip-path="url(#clip6202)" style="stroke:#e26f46; stroke-width:4; stroke-opacity:1; fill:none" points="
  1426.55,968.248 1436.68,1007.2 1399.44,991.934 
  "/>
<polyline clip-path="url(#clip6202)" style="stroke:#e26f46; stroke-width:4; stroke-opacity:1; fill:none" points="
  1436.68,1007.2 1407.78,974.119 
  "/>
<polyline clip-path="url(#clip6202)" style="stroke:#e26f46; stroke-width:4; stroke-opacity:1; fill:none" points="
  1407.78,855.971 1426.26,877.238 
  "/>
<polyline clip-path="url(#clip6202)" style="stroke:#e26f46; stroke-width:4; stroke-opacity:1; fill:none" points="
  1416.23,838.259 1426.26,877.238 1389.06,861.878 
  "/>
<polyline clip-path="url(#clip6202)" style="stroke:#e26f46; stroke-width:4; stroke-opacity:1; fill:none" points="
  1426.26,877.238 1407.78,855.971 
  "/>
<polyline clip-path="url(#clip6202)" style="stroke:#e26f46; stroke-width:4; stroke-opacity:1; fill:none" points="
  1407.78,737.822 1415.85,747.274 
  "/>
<polyline clip-path="url(#clip6202)" style="stroke:#e26f46; stroke-width:4; stroke-opacity:1; fill:none" points="
  1406.16,708.209 1415.85,747.274 1378.78,731.589 
  "/>
<polyline clip-path="url(#clip6202)" style="stroke:#e26f46; stroke-width:4; stroke-opacity:1; fill:none" points="
  1415.85,747.274 1407.78,737.822 
  "/>
<polyline clip-path="url(#clip6202)" style="stroke:#e26f46; stroke-width:4; stroke-opacity:1; fill:none" points="
  1407.78,619.674 1405.43,617.311 
  "/>
<polyline clip-path="url(#clip6202)" style="stroke:#e26f46; stroke-width:4; stroke-opacity:1; fill:none" points="
  1418,655.547 1405.43,617.311 1443.56,630.196 
  "/>
<polyline clip-path="url(#clip6202)" style="stroke:#e26f46; stroke-width:4; stroke-opacity:1; fill:none" points="
  1405.43,617.311 1407.78,619.674 
  "/>
<polyline clip-path="url(#clip6202)" style="stroke:#e26f46; stroke-width:4; stroke-opacity:1; fill:none" points="
  1407.78,501.525 1395.02,487.347 
  "/>
<polyline clip-path="url(#clip6202)" style="stroke:#e26f46; stroke-width:4; stroke-opacity:1; fill:none" points="
  1405.72,526.148 1395.02,487.347 1432.48,502.066 
  "/>
<polyline clip-path="url(#clip6202)" style="stroke:#e26f46; stroke-width:4; stroke-opacity:1; fill:none" points="
  1395.02,487.347 1407.78,501.525 
  "/>
<polyline clip-path="url(#clip6202)" style="stroke:#e26f46; stroke-width:4; stroke-opacity:1; fill:none" points="
  1407.78,383.377 1384.6,357.384 
  "/>
<polyline clip-path="url(#clip6202)" style="stroke:#e26f46; stroke-width:4; stroke-opacity:1; fill:none" points="
  1395.12,396.233 1384.6,357.384 1421.99,372.276 
  "/>
<polyline clip-path="url(#clip6202)" style="stroke:#e26f46; stroke-width:4; stroke-opacity:1; fill:none" points="
  1384.6,357.384 1407.78,383.377 
  "/>
<polyline clip-path="url(#clip6202)" style="stroke:#e26f46; stroke-width:4; stroke-opacity:1; fill:none" points="
  1407.78,265.228 1374.19,227.421 
  "/>
<polyline clip-path="url(#clip6202)" style="stroke:#e26f46; stroke-width:4; stroke-opacity:1; fill:none" points="
  1384.64,266.288 1374.19,227.421 1411.55,242.378 
  "/>
<polyline clip-path="url(#clip6202)" style="stroke:#e26f46; stroke-width:4; stroke-opacity:1; fill:none" points="
  1374.19,227.421 1407.78,265.228 
  "/>
<polyline clip-path="url(#clip6202)" style="stroke:#e26f46; stroke-width:4; stroke-opacity:1; fill:none" points="
  1407.78,147.08 1363.77,97.4572 
  "/>
<polyline clip-path="url(#clip6202)" style="stroke:#e26f46; stroke-width:4; stroke-opacity:1; fill:none" points="
  1374.19,136.335 1363.77,97.4572 1401.12,112.448 
  "/>
<polyline clip-path="url(#clip6202)" style="stroke:#e26f46; stroke-width:4; stroke-opacity:1; fill:none" points="
  1363.77,97.4572 1407.78,147.08 
  "/>
<polyline clip-path="url(#clip6202)" style="stroke:#e26f46; stroke-width:4; stroke-opacity:1; fill:none" points="
  1537.97,1328.56 1643.82,1408.91 
  "/>
<polyline clip-path="url(#clip6202)" style="stroke:#e26f46; stroke-width:4; stroke-opacity:1; fill:none" points="
  1626.03,1372.8 1643.82,1408.91 1604.27,1401.48 
  "/>
<polyline clip-path="url(#clip6202)" style="stroke:#e26f46; stroke-width:4; stroke-opacity:1; fill:none" points="
  1643.82,1408.91 1537.97,1328.56 
  "/>
<polyline clip-path="url(#clip6202)" style="stroke:#e26f46; stroke-width:4; stroke-opacity:1; fill:none" points="
  1537.97,1210.42 1628.2,1278.94 
  "/>
<polyline clip-path="url(#clip6202)" style="stroke:#e26f46; stroke-width:4; stroke-opacity:1; fill:none" points="
  1610.42,1242.83 1628.2,1278.94 1588.64,1271.5 
  "/>
<polyline clip-path="url(#clip6202)" style="stroke:#e26f46; stroke-width:4; stroke-opacity:1; fill:none" points="
  1628.2,1278.94 1537.97,1210.42 
  "/>
<polyline clip-path="url(#clip6202)" style="stroke:#e26f46; stroke-width:4; stroke-opacity:1; fill:none" points="
  1537.97,1092.27 1612.58,1148.98 
  "/>
<polyline clip-path="url(#clip6202)" style="stroke:#e26f46; stroke-width:4; stroke-opacity:1; fill:none" points="
  1594.81,1112.86 1612.58,1148.98 1573.02,1141.52 
  "/>
<polyline clip-path="url(#clip6202)" style="stroke:#e26f46; stroke-width:4; stroke-opacity:1; fill:none" points="
  1612.58,1148.98 1537.97,1092.27 
  "/>
<polyline clip-path="url(#clip6202)" style="stroke:#e26f46; stroke-width:4; stroke-opacity:1; fill:none" points="
  1537.97,974.119 1596.95,1019.02 
  "/>
<polyline clip-path="url(#clip6202)" style="stroke:#e26f46; stroke-width:4; stroke-opacity:1; fill:none" points="
  1579.21,982.888 1596.95,1019.02 1557.41,1011.53 
  "/>
<polyline clip-path="url(#clip6202)" style="stroke:#e26f46; stroke-width:4; stroke-opacity:1; fill:none" points="
  1596.95,1019.02 1537.97,974.119 
  "/>
<polyline clip-path="url(#clip6202)" style="stroke:#e26f46; stroke-width:4; stroke-opacity:1; fill:none" points="
  1537.97,855.971 1581.33,889.052 
  "/>
<polyline clip-path="url(#clip6202)" style="stroke:#e26f46; stroke-width:4; stroke-opacity:1; fill:none" points="
  1563.63,852.904 1581.33,889.052 1541.79,881.525 
  "/>
<polyline clip-path="url(#clip6202)" style="stroke:#e26f46; stroke-width:4; stroke-opacity:1; fill:none" points="
  1581.33,889.052 1537.97,855.971 
  "/>
<polyline clip-path="url(#clip6202)" style="stroke:#e26f46; stroke-width:4; stroke-opacity:1; fill:none" points="
  1537.97,737.822 1565.71,759.089 
  "/>
<polyline clip-path="url(#clip6202)" style="stroke:#e26f46; stroke-width:4; stroke-opacity:1; fill:none" points="
  1548.09,722.898 1565.71,759.089 1526.19,751.465 
  "/>
<polyline clip-path="url(#clip6202)" style="stroke:#e26f46; stroke-width:4; stroke-opacity:1; fill:none" points="
  1565.71,759.089 1537.97,737.822 
  "/>
<polyline clip-path="url(#clip6202)" style="stroke:#e26f46; stroke-width:4; stroke-opacity:1; fill:none" points="
  1537.97,619.674 1550.08,629.126 
  "/>
<polyline clip-path="url(#clip6202)" style="stroke:#e26f46; stroke-width:4; stroke-opacity:1; fill:none" points="
  1532.78,592.785 1550.08,629.126 1510.63,621.163 
  "/>
<polyline clip-path="url(#clip6202)" style="stroke:#e26f46; stroke-width:4; stroke-opacity:1; fill:none" points="
  1550.08,629.126 1537.97,619.674 
  "/>
<polyline clip-path="url(#clip6202)" style="stroke:#e26f46; stroke-width:4; stroke-opacity:1; fill:none" points="
  1537.97,501.525 1534.46,499.162 
  "/>
<polyline clip-path="url(#clip6202)" style="stroke:#e26f46; stroke-width:4; stroke-opacity:1; fill:none" points="
  1554.29,534.184 1534.46,499.162 1574.38,504.307 
  "/>
<polyline clip-path="url(#clip6202)" style="stroke:#e26f46; stroke-width:4; stroke-opacity:1; fill:none" points="
  1534.46,499.162 1537.97,501.525 
  "/>
<polyline clip-path="url(#clip6202)" style="stroke:#e26f46; stroke-width:4; stroke-opacity:1; fill:none" points="
  1537.97,383.377 1518.83,369.199 
  "/>
<polyline clip-path="url(#clip6202)" style="stroke:#e26f46; stroke-width:4; stroke-opacity:1; fill:none" points="
  1537.05,405.092 1518.83,369.199 1558.48,376.164 
  "/>
<polyline clip-path="url(#clip6202)" style="stroke:#e26f46; stroke-width:4; stroke-opacity:1; fill:none" points="
  1518.83,369.199 1537.97,383.377 
  "/>
<polyline clip-path="url(#clip6202)" style="stroke:#e26f46; stroke-width:4; stroke-opacity:1; fill:none" points="
  1537.97,265.228 1503.21,239.235 
  "/>
<polyline clip-path="url(#clip6202)" style="stroke:#e26f46; stroke-width:4; stroke-opacity:1; fill:none" points="
  1521.26,275.209 1503.21,239.235 1542.82,246.378 
  "/>
<polyline clip-path="url(#clip6202)" style="stroke:#e26f46; stroke-width:4; stroke-opacity:1; fill:none" points="
  1503.21,239.235 1537.97,265.228 
  "/>
<polyline clip-path="url(#clip6202)" style="stroke:#e26f46; stroke-width:4; stroke-opacity:1; fill:none" points="
  1537.97,147.08 1487.59,109.272 
  "/>
<polyline clip-path="url(#clip6202)" style="stroke:#e26f46; stroke-width:4; stroke-opacity:1; fill:none" points="
  1505.58,145.276 1487.59,109.272 1527.19,116.481 
  "/>
<polyline clip-path="url(#clip6202)" style="stroke:#e26f46; stroke-width:4; stroke-opacity:1; fill:none" points="
  1487.59,109.272 1537.97,147.08 
  "/>
<polyline clip-path="url(#clip6202)" style="stroke:#e26f46; stroke-width:4; stroke-opacity:1; fill:none" points="
  1668.17,1328.56 1838.47,1425.45 
  "/>
<polyline clip-path="url(#clip6202)" style="stroke:#e26f46; stroke-width:4; stroke-opacity:1; fill:none" points="
  1816.08,1392 1838.47,1425.45 1798.28,1423.29 
  "/>
<polyline clip-path="url(#clip6202)" style="stroke:#e26f46; stroke-width:4; stroke-opacity:1; fill:none" points="
  1838.47,1425.45 1668.17,1328.56 
  "/>
<polyline clip-path="url(#clip6202)" style="stroke:#e26f46; stroke-width:4; stroke-opacity:1; fill:none" points="
  1668.17,1210.42 1817.64,1295.48 
  "/>
<polyline clip-path="url(#clip6202)" style="stroke:#e26f46; stroke-width:4; stroke-opacity:1; fill:none" points="
  1795.25,1262.03 1817.64,1295.48 1777.45,1293.32 
  "/>
<polyline clip-path="url(#clip6202)" style="stroke:#e26f46; stroke-width:4; stroke-opacity:1; fill:none" points="
  1817.64,1295.48 1668.17,1210.42 
  "/>
<polyline clip-path="url(#clip6202)" style="stroke:#e26f46; stroke-width:4; stroke-opacity:1; fill:none" points="
  1668.17,1092.27 1796.81,1165.52 
  "/>
<polyline clip-path="url(#clip6202)" style="stroke:#e26f46; stroke-width:4; stroke-opacity:1; fill:none" points="
  1774.43,1132.06 1796.81,1165.52 1756.62,1163.35 
  "/>
<polyline clip-path="url(#clip6202)" style="stroke:#e26f46; stroke-width:4; stroke-opacity:1; fill:none" points="
  1796.81,1165.52 1668.17,1092.27 
  "/>
<polyline clip-path="url(#clip6202)" style="stroke:#e26f46; stroke-width:4; stroke-opacity:1; fill:none" points="
  1668.17,974.119 1775.97,1035.56 
  "/>
<polyline clip-path="url(#clip6202)" style="stroke:#e26f46; stroke-width:4; stroke-opacity:1; fill:none" points="
  1753.61,1002.09 1775.97,1035.56 1735.78,1033.37 
  "/>
<polyline clip-path="url(#clip6202)" style="stroke:#e26f46; stroke-width:4; stroke-opacity:1; fill:none" points="
  1775.97,1035.56 1668.17,974.119 
  "/>
<polyline clip-path="url(#clip6202)" style="stroke:#e26f46; stroke-width:4; stroke-opacity:1; fill:none" points="
  1668.17,855.971 1755.14,905.593 
  "/>
<polyline clip-path="url(#clip6202)" style="stroke:#e26f46; stroke-width:4; stroke-opacity:1; fill:none" points="
  1732.79,872.118 1755.14,905.593 1714.95,903.387 
  "/>
<polyline clip-path="url(#clip6202)" style="stroke:#e26f46; stroke-width:4; stroke-opacity:1; fill:none" points="
  1755.14,905.593 1668.17,855.971 
  "/>
<polyline clip-path="url(#clip6202)" style="stroke:#e26f46; stroke-width:4; stroke-opacity:1; fill:none" points="
  1668.17,737.822 1734.31,775.63 
  "/>
<polyline clip-path="url(#clip6202)" style="stroke:#e26f46; stroke-width:4; stroke-opacity:1; fill:none" points="
  1711.99,742.137 1734.31,775.63 1694.12,773.391 
  "/>
<polyline clip-path="url(#clip6202)" style="stroke:#e26f46; stroke-width:4; stroke-opacity:1; fill:none" points="
  1734.31,775.63 1668.17,737.822 
  "/>
<polyline clip-path="url(#clip6202)" style="stroke:#e26f46; stroke-width:4; stroke-opacity:1; fill:none" points="
  1668.17,619.674 1713.48,645.666 
  "/>
<polyline clip-path="url(#clip6202)" style="stroke:#e26f46; stroke-width:4; stroke-opacity:1; fill:none" points="
  1691.21,612.139 1713.48,645.666 1673.3,643.366 
  "/>
<polyline clip-path="url(#clip6202)" style="stroke:#e26f46; stroke-width:4; stroke-opacity:1; fill:none" points="
  1713.48,645.666 1668.17,619.674 
  "/>
<polyline clip-path="url(#clip6202)" style="stroke:#e26f46; stroke-width:4; stroke-opacity:1; fill:none" points="
  1668.17,501.525 1692.65,515.703 
  "/>
<polyline clip-path="url(#clip6202)" style="stroke:#e26f46; stroke-width:4; stroke-opacity:1; fill:none" points="
  1670.52,482.083 1692.65,515.703 1652.47,513.235 
  "/>
<polyline clip-path="url(#clip6202)" style="stroke:#e26f46; stroke-width:4; stroke-opacity:1; fill:none" points="
  1692.65,515.703 1668.17,501.525 
  "/>
<polyline clip-path="url(#clip6202)" style="stroke:#e26f46; stroke-width:4; stroke-opacity:1; fill:none" points="
  1668.17,383.377 1671.82,385.74 
  "/>
<polyline clip-path="url(#clip6202)" style="stroke:#e26f46; stroke-width:4; stroke-opacity:1; fill:none" points="
  1651.4,351.054 1671.82,385.74 1631.82,381.263 
  "/>
<polyline clip-path="url(#clip6202)" style="stroke:#e26f46; stroke-width:4; stroke-opacity:1; fill:none" points="
  1671.82,385.74 1668.17,383.377 
  "/>
<polyline clip-path="url(#clip6202)" style="stroke:#e26f46; stroke-width:4; stroke-opacity:1; fill:none" points="
  1668.17,265.228 1650.99,255.776 
  "/>
<polyline clip-path="url(#clip6202)" style="stroke:#e26f46; stroke-width:4; stroke-opacity:1; fill:none" points="
  1673.86,288.897 1650.99,255.776 1691.2,257.353 
  "/>
<polyline clip-path="url(#clip6202)" style="stroke:#e26f46; stroke-width:4; stroke-opacity:1; fill:none" points="
  1650.99,255.776 1668.17,265.228 
  "/>
<polyline clip-path="url(#clip6202)" style="stroke:#e26f46; stroke-width:4; stroke-opacity:1; fill:none" points="
  1668.17,147.08 1630.15,125.813 
  "/>
<polyline clip-path="url(#clip6202)" style="stroke:#e26f46; stroke-width:4; stroke-opacity:1; fill:none" points="
  1652.78,159.097 1630.15,125.813 1670.36,127.679 
  "/>
<polyline clip-path="url(#clip6202)" style="stroke:#e26f46; stroke-width:4; stroke-opacity:1; fill:none" points="
  1630.15,125.813 1668.17,147.08 
  "/>
<polyline clip-path="url(#clip6202)" style="stroke:#e26f46; stroke-width:4; stroke-opacity:1; fill:none" points="
  1798.37,1328.56 2058.11,1446.71 
  "/>
<polyline clip-path="url(#clip6202)" style="stroke:#e26f46; stroke-width:4; stroke-opacity:1; fill:none" points="
  2032.8,1415.42 2058.11,1446.71 2017.89,1448.19 
  "/>
<polyline clip-path="url(#clip6202)" style="stroke:#e26f46; stroke-width:4; stroke-opacity:1; fill:none" points="
  2058.11,1446.71 1798.37,1328.56 
  "/>
<polyline clip-path="url(#clip6202)" style="stroke:#e26f46; stroke-width:4; stroke-opacity:1; fill:none" points="
  1798.37,1210.42 2032.07,1316.75 
  "/>
<polyline clip-path="url(#clip6202)" style="stroke:#e26f46; stroke-width:4; stroke-opacity:1; fill:none" points="
  2006.76,1285.46 2032.07,1316.75 1991.85,1318.22 
  "/>
<polyline clip-path="url(#clip6202)" style="stroke:#e26f46; stroke-width:4; stroke-opacity:1; fill:none" points="
  2032.07,1316.75 1798.37,1210.42 
  "/>
<polyline clip-path="url(#clip6202)" style="stroke:#e26f46; stroke-width:4; stroke-opacity:1; fill:none" points="
  1798.37,1092.27 2006.03,1186.79 
  "/>
<polyline clip-path="url(#clip6202)" style="stroke:#e26f46; stroke-width:4; stroke-opacity:1; fill:none" points="
  1980.72,1155.49 2006.03,1186.79 1965.81,1188.26 
  "/>
<polyline clip-path="url(#clip6202)" style="stroke:#e26f46; stroke-width:4; stroke-opacity:1; fill:none" points="
  2006.03,1186.79 1798.37,1092.27 
  "/>
<polyline clip-path="url(#clip6202)" style="stroke:#e26f46; stroke-width:4; stroke-opacity:1; fill:none" points="
  1798.37,974.119 1979.99,1056.82 
  "/>
<polyline clip-path="url(#clip6202)" style="stroke:#e26f46; stroke-width:4; stroke-opacity:1; fill:none" points="
  1954.69,1025.52 1979.99,1056.82 1939.77,1058.29 
  "/>
<polyline clip-path="url(#clip6202)" style="stroke:#e26f46; stroke-width:4; stroke-opacity:1; fill:none" points="
  1979.99,1056.82 1798.37,974.119 
  "/>
<polyline clip-path="url(#clip6202)" style="stroke:#e26f46; stroke-width:4; stroke-opacity:1; fill:none" points="
  1798.37,855.971 1953.95,926.86 
  "/>
<polyline clip-path="url(#clip6202)" style="stroke:#e26f46; stroke-width:4; stroke-opacity:1; fill:none" points="
  1928.66,895.554 1953.95,926.86 1913.73,928.314 
  "/>
<polyline clip-path="url(#clip6202)" style="stroke:#e26f46; stroke-width:4; stroke-opacity:1; fill:none" points="
  1953.95,926.86 1798.37,855.971 
  "/>
<polyline clip-path="url(#clip6202)" style="stroke:#e26f46; stroke-width:4; stroke-opacity:1; fill:none" points="
  1798.37,737.822 1927.91,796.897 
  "/>
<polyline clip-path="url(#clip6202)" style="stroke:#e26f46; stroke-width:4; stroke-opacity:1; fill:none" points="
  1902.63,765.582 1927.91,796.897 1887.69,798.337 
  "/>
<polyline clip-path="url(#clip6202)" style="stroke:#e26f46; stroke-width:4; stroke-opacity:1; fill:none" points="
  1927.91,796.897 1798.37,737.822 
  "/>
<polyline clip-path="url(#clip6202)" style="stroke:#e26f46; stroke-width:4; stroke-opacity:1; fill:none" points="
  1798.37,619.674 1901.88,666.933 
  "/>
<polyline clip-path="url(#clip6202)" style="stroke:#e26f46; stroke-width:4; stroke-opacity:1; fill:none" points="
  1876.6,635.607 1901.88,666.933 1861.65,668.355 
  "/>
<polyline clip-path="url(#clip6202)" style="stroke:#e26f46; stroke-width:4; stroke-opacity:1; fill:none" points="
  1901.88,666.933 1798.37,619.674 
  "/>
<polyline clip-path="url(#clip6202)" style="stroke:#e26f46; stroke-width:4; stroke-opacity:1; fill:none" points="
  1798.37,501.525 1875.84,536.97 
  "/>
<polyline clip-path="url(#clip6202)" style="stroke:#e26f46; stroke-width:4; stroke-opacity:1; fill:none" points="
  1850.59,505.624 1875.84,536.97 1835.61,538.36 
  "/>
<polyline clip-path="url(#clip6202)" style="stroke:#e26f46; stroke-width:4; stroke-opacity:1; fill:none" points="
  1875.84,536.97 1798.37,501.525 
  "/>
<polyline clip-path="url(#clip6202)" style="stroke:#e26f46; stroke-width:4; stroke-opacity:1; fill:none" points="
  1798.37,383.377 1849.8,407.006 
  "/>
<polyline clip-path="url(#clip6202)" style="stroke:#e26f46; stroke-width:4; stroke-opacity:1; fill:none" points="
  1824.6,375.62 1849.8,407.006 1809.57,408.332 
  "/>
<polyline clip-path="url(#clip6202)" style="stroke:#e26f46; stroke-width:4; stroke-opacity:1; fill:none" points="
  1849.8,407.006 1798.37,383.377 
  "/>
<polyline clip-path="url(#clip6202)" style="stroke:#e26f46; stroke-width:4; stroke-opacity:1; fill:none" points="
  1798.37,265.228 1823.76,277.043 
  "/>
<polyline clip-path="url(#clip6202)" style="stroke:#e26f46; stroke-width:4; stroke-opacity:1; fill:none" points="
  1798.71,245.535 1823.76,277.043 1783.52,278.174 
  "/>
<polyline clip-path="url(#clip6202)" style="stroke:#e26f46; stroke-width:4; stroke-opacity:1; fill:none" points="
  1823.76,277.043 1798.37,265.228 
  "/>
<polyline clip-path="url(#clip6202)" style="stroke:#e26f46; stroke-width:4; stroke-opacity:1; fill:none" points="
  1798.37,147.08 1797.72,147.08 
  "/>
<polyline clip-path="url(#clip6202)" style="stroke:#e26f46; stroke-width:4; stroke-opacity:1; fill:none" points="
  1833.72,165.08 1797.72,147.08 1833.72,129.08 
  "/>
<polyline clip-path="url(#clip6202)" style="stroke:#e26f46; stroke-width:4; stroke-opacity:1; fill:none" points="
  1797.72,147.08 1798.37,147.08 
  "/>
<defs>
  <clipPath id="clip6203">
    <rect x="2160" y="47" width="73" height="1441"/>
  </clipPath>
</defs>
<path clip-path="url(#clip6203)" d="
M2160.76 1487.47 L2232.76 1487.47 L2232.76 1397.46 L2160.76 1397.46  Z
  " fill="#000003" fill-rule="evenodd" fill-opacity="1"/>
<path clip-path="url(#clip6203)" d="
M2160.76 1397.46 L2232.76 1397.46 L2232.76 1307.45 L2160.76 1307.45  Z
  " fill="#0c0727" fill-rule="evenodd" fill-opacity="1"/>
<path clip-path="url(#clip6203)" d="
M2160.76 1307.45 L2232.76 1307.45 L2232.76 1217.43 L2160.76 1217.43  Z
  " fill="#240b4e" fill-rule="evenodd" fill-opacity="1"/>
<path clip-path="url(#clip6203)" d="
M2160.76 1217.43 L2232.76 1217.43 L2232.76 1127.42 L2160.76 1127.42  Z
  " fill="#420a67" fill-rule="evenodd" fill-opacity="1"/>
<path clip-path="url(#clip6203)" d="
M2160.76 1127.42 L2232.76 1127.42 L2232.76 1037.4 L2160.76 1037.4  Z
  " fill="#5d126d" fill-rule="evenodd" fill-opacity="1"/>
<path clip-path="url(#clip6203)" d="
M2160.76 1037.4 L2232.76 1037.4 L2232.76 947.388 L2160.76 947.388  Z
  " fill="#781c6d" fill-rule="evenodd" fill-opacity="1"/>
<path clip-path="url(#clip6203)" d="
M2160.76 947.388 L2232.76 947.388 L2232.76 857.374 L2160.76 857.374  Z
  " fill="#942666" fill-rule="evenodd" fill-opacity="1"/>
<path clip-path="url(#clip6203)" d="
M2160.76 857.374 L2232.76 857.374 L2232.76 767.359 L2160.76 767.359  Z
  " fill="#ad305b" fill-rule="evenodd" fill-opacity="1"/>
<path clip-path="url(#clip6203)" d="
M2160.76 767.359 L2232.76 767.359 L2232.76 677.345 L2160.76 677.345  Z
  " fill="#c73e4c" fill-rule="evenodd" fill-opacity="1"/>
<path clip-path="url(#clip6203)" d="
M2160.76 677.345 L2232.76 677.345 L2232.76 587.331 L2160.76 587.331  Z
  " fill="#db503a" fill-rule="evenodd" fill-opacity="1"/>
<path clip-path="url(#clip6203)" d="
M2160.76 587.331 L2232.76 587.331 L2232.76 497.316 L2160.76 497.316  Z
  " fill="#ec6925" fill-rule="evenodd" fill-opacity="1"/>
<path clip-path="url(#clip6203)" d="
M2160.76 497.316 L2232.76 497.316 L2232.76 407.302 L2160.76 407.302  Z
  " fill="#f7850e" fill-rule="evenodd" fill-opacity="1"/>
<path clip-path="url(#clip6203)" d="
M2160.76 407.302 L2232.76 407.302 L2232.76 317.287 L2160.76 317.287  Z
  " fill="#fba40a" fill-rule="evenodd" fill-opacity="1"/>
<path clip-path="url(#clip6203)" d="
M2160.76 317.287 L2232.76 317.287 L2232.76 227.273 L2160.76 227.273  Z
  " fill="#f9c52d" fill-rule="evenodd" fill-opacity="1"/>
<path clip-path="url(#clip6203)" d="
M2160.76 227.273 L2232.76 227.273 L2232.76 137.259 L2160.76 137.259  Z
  " fill="#f2e55f" fill-rule="evenodd" fill-opacity="1"/>
<path clip-path="url(#clip6203)" d="
M2160.76 137.259 L2232.76 137.259 L2232.76 47.2441 L2160.76 47.2441  Z
  " fill="#fcfea4" fill-rule="evenodd" fill-opacity="1"/>
<g clip-path="url(#clip6200)">
<text style="fill:#000000; fill-opacity:1; font-family:Arial,Helvetica Neue,Helvetica,sans-serif; font-size:48px; text-anchor:start;" transform="rotate(0, 2268.76, 1501.13)" x="2268.76" y="1501.13">0</text>
</g>
<g clip-path="url(#clip6200)">
<text style="fill:#000000; fill-opacity:1; font-family:Arial,Helvetica Neue,Helvetica,sans-serif; font-size:48px; text-anchor:start;" transform="rotate(0, 2268.76, 1321.1)" x="2268.76" y="1321.1">50</text>
</g>
<g clip-path="url(#clip6200)">
<text style="fill:#000000; fill-opacity:1; font-family:Arial,Helvetica Neue,Helvetica,sans-serif; font-size:48px; text-anchor:start;" transform="rotate(0, 2268.76, 1141.07)" x="2268.76" y="1141.07">100</text>
</g>
<g clip-path="url(#clip6200)">
<text style="fill:#000000; fill-opacity:1; font-family:Arial,Helvetica Neue,Helvetica,sans-serif; font-size:48px; text-anchor:start;" transform="rotate(0, 2268.76, 961.039)" x="2268.76" y="961.039">150</text>
</g>
<g clip-path="url(#clip6200)">
<text style="fill:#000000; fill-opacity:1; font-family:Arial,Helvetica Neue,Helvetica,sans-serif; font-size:48px; text-anchor:start;" transform="rotate(0, 2268.76, 781.011)" x="2268.76" y="781.011">200</text>
</g>
<g clip-path="url(#clip6200)">
<text style="fill:#000000; fill-opacity:1; font-family:Arial,Helvetica Neue,Helvetica,sans-serif; font-size:48px; text-anchor:start;" transform="rotate(0, 2268.76, 600.982)" x="2268.76" y="600.982">250</text>
</g>
<g clip-path="url(#clip6200)">
<text style="fill:#000000; fill-opacity:1; font-family:Arial,Helvetica Neue,Helvetica,sans-serif; font-size:48px; text-anchor:start;" transform="rotate(0, 2268.76, 420.953)" x="2268.76" y="420.953">300</text>
</g>
<g clip-path="url(#clip6200)">
<text style="fill:#000000; fill-opacity:1; font-family:Arial,Helvetica Neue,Helvetica,sans-serif; font-size:48px; text-anchor:start;" transform="rotate(0, 2268.76, 240.924)" x="2268.76" y="240.924">350</text>
</g>
<g clip-path="url(#clip6200)">
<text style="fill:#000000; fill-opacity:1; font-family:Arial,Helvetica Neue,Helvetica,sans-serif; font-size:48px; text-anchor:start;" transform="rotate(0, 2268.76, 60.8953)" x="2268.76" y="60.8953">400</text>
</g>
<polyline clip-path="url(#clip6200)" style="stroke:#000000; stroke-width:4; stroke-opacity:1; fill:none" points="
  2232.76,1487.47 2232.76,1487.47 2256.76,1487.47 2232.76,1487.47 2232.76,1307.45 2256.76,1307.45 2232.76,1307.45 2232.76,1127.42 2256.76,1127.42 2232.76,1127.42 
  2232.76,947.388 2256.76,947.388 2232.76,947.388 2232.76,767.359 2256.76,767.359 2232.76,767.359 2232.76,587.331 2256.76,587.331 2232.76,587.331 2232.76,407.302 
  2256.76,407.302 2232.76,407.302 2232.76,227.273 2256.76,227.273 2232.76,227.273 2232.76,47.2441 2256.76,47.2441 2232.76,47.2441 
  "/>
</svg>
